G04*
G04 #@! TF.GenerationSoftware,Altium Limited,Altium Designer,22.6.1 (34)*
G04*
G04 Layer_Physical_Order=1*
G04 Layer_Color=39423*
%FSLAX44Y44*%
%MOMM*%
G71*
G04*
G04 #@! TF.SameCoordinates,64BB26C1-36A9-42FA-8A83-9A0FAFC5C5BC*
G04*
G04*
G04 #@! TF.FilePolarity,Positive*
G04*
G01*
G75*
%ADD11C,0.2540*%
%ADD14R,0.8500X0.8500*%
%ADD15R,1.9050X1.7145*%
%ADD16R,1.6500X1.4000*%
%ADD17R,1.6500X1.4000*%
%ADD18R,0.8500X0.8500*%
%ADD19O,2.0828X0.7000*%
%ADD20R,0.7000X2.2540*%
%ADD21R,0.5842X1.4986*%
%ADD22R,0.6604X1.4986*%
%ADD23R,1.7145X1.9050*%
%ADD24R,1.5360X0.6000*%
%ADD25R,1.5360X0.3000*%
%ADD42C,0.5080*%
%ADD43O,1.8000X1.8000*%
%ADD44O,2.1000X1.0000*%
%ADD45O,1.6000X1.0000*%
%ADD46C,0.6000*%
G36*
X442366Y245711D02*
X444371Y244371D01*
X445711Y242366D01*
X446149Y240167D01*
X446115Y240000D01*
Y12032D01*
X446115Y12025D01*
X446115Y10000D01*
X445803Y8097D01*
X445711Y7634D01*
X444371Y5629D01*
X442365Y4289D01*
X440167Y3851D01*
X440000Y3885D01*
X12032Y3885D01*
X11987Y3885D01*
X10000Y3885D01*
X8097Y4197D01*
X7634Y4289D01*
X5629Y5629D01*
X4289Y7634D01*
X3851Y9833D01*
X3885Y10000D01*
Y240000D01*
X3851Y240167D01*
X4289Y242366D01*
X5629Y244371D01*
X7634Y245711D01*
X9833Y246149D01*
X10000Y246115D01*
X440000D01*
X440167Y246149D01*
X442366Y245711D01*
D02*
G37*
%LPC*%
G36*
X272852Y241232D02*
X267840D01*
Y236220D01*
X272852D01*
Y241232D01*
D02*
G37*
G36*
X265300D02*
X260288D01*
Y236220D01*
X265300D01*
Y241232D01*
D02*
G37*
G36*
X30360Y240805D02*
X28630D01*
Y234470D01*
X37798D01*
X37706Y235168D01*
X36946Y237003D01*
X35738Y238578D01*
X34162Y239786D01*
X32328Y240546D01*
X30360Y240805D01*
D02*
G37*
G36*
X74360Y240805D02*
X70130D01*
Y234470D01*
X81798D01*
X81706Y235168D01*
X80946Y237003D01*
X79738Y238578D01*
X78163Y239786D01*
X76329Y240546D01*
X74360Y240805D01*
D02*
G37*
G36*
X26090Y240805D02*
X24360D01*
X22392Y240546D01*
X20557Y239786D01*
X18982Y238578D01*
X17774Y237003D01*
X17014Y235168D01*
X16922Y234470D01*
X26090D01*
Y240805D01*
D02*
G37*
G36*
X67590Y240805D02*
X63360D01*
X61392Y240546D01*
X59558Y239786D01*
X57983Y238578D01*
X56774Y237003D01*
X56014Y235168D01*
X55922Y234470D01*
X67590D01*
Y240805D01*
D02*
G37*
G36*
X183783Y238252D02*
X180100D01*
Y229997D01*
X183783D01*
Y238252D01*
D02*
G37*
G36*
X177560D02*
X173877D01*
Y229997D01*
X177560D01*
Y238252D01*
D02*
G37*
G36*
X265300Y233680D02*
X260288D01*
Y228668D01*
X265300D01*
Y233680D01*
D02*
G37*
G36*
X288352Y241232D02*
X275788D01*
Y230429D01*
X275343Y228642D01*
X274320Y228582D01*
X273297Y228642D01*
X272852Y230429D01*
Y233680D01*
X267840D01*
Y228668D01*
X269478D01*
X270320Y226636D01*
X270054Y226370D01*
X269288Y224521D01*
Y222519D01*
X270054Y220670D01*
X271470Y219254D01*
X273319Y218488D01*
X275321D01*
X277170Y219254D01*
X277731Y219814D01*
X277871Y219900D01*
X277968Y219990D01*
X277995Y220011D01*
X278032Y220034D01*
X278081Y220059D01*
X278148Y220086D01*
X278237Y220112D01*
X278349Y220138D01*
X278454Y220153D01*
X279400D01*
X280688Y220410D01*
X281781Y221139D01*
X284451Y223809D01*
X285180Y224902D01*
X285437Y226190D01*
Y228668D01*
X288352D01*
Y231583D01*
X297055D01*
X300719Y227920D01*
Y222810D01*
X297172D01*
X295014Y222381D01*
X293184Y221158D01*
X292252Y221436D01*
X290403Y222202D01*
X288401D01*
X286552Y221436D01*
X285136Y220020D01*
X284370Y218171D01*
Y216169D01*
X285136Y214320D01*
X286552Y212904D01*
X288401Y212138D01*
X290403D01*
X292252Y212904D01*
X293184Y213182D01*
X295014Y211959D01*
X296183Y211726D01*
Y209655D01*
X295113Y209442D01*
X293367Y208275D01*
X292200Y206529D01*
X291791Y204470D01*
X292200Y202411D01*
X293367Y200665D01*
X295113Y199498D01*
X297172Y199089D01*
Y197151D01*
X295113Y196742D01*
X293367Y195575D01*
X292200Y193829D01*
X291791Y191770D01*
X292200Y189711D01*
X293367Y187965D01*
X295113Y186798D01*
X297172Y186389D01*
Y184451D01*
X295113Y184042D01*
X293367Y182875D01*
X292200Y181129D01*
X291791Y179070D01*
X292200Y177011D01*
X293367Y175265D01*
X295113Y174098D01*
X297172Y173689D01*
Y171751D01*
X295113Y171342D01*
X293367Y170175D01*
X292200Y168429D01*
X291791Y166370D01*
X292200Y164311D01*
X293367Y162565D01*
X295113Y161398D01*
X297172Y160989D01*
Y159051D01*
X295113Y158642D01*
X293367Y157475D01*
X292200Y155729D01*
X291791Y153670D01*
X292200Y151611D01*
X293367Y149865D01*
X295113Y148698D01*
X297172Y148289D01*
Y146351D01*
X295113Y145942D01*
X293367Y144775D01*
X292200Y143029D01*
X291791Y140970D01*
X292200Y138911D01*
X293367Y137165D01*
X295113Y135998D01*
X297172Y135589D01*
Y133651D01*
X295113Y133242D01*
X293367Y132075D01*
X292200Y130329D01*
X291791Y128270D01*
X292200Y126211D01*
X293367Y124465D01*
X295113Y123298D01*
X297172Y122889D01*
X311000D01*
X313059Y123298D01*
X314805Y124465D01*
X315972Y126211D01*
X316381Y128270D01*
X315972Y130329D01*
X314805Y132075D01*
X313059Y133242D01*
X311000Y133651D01*
Y135589D01*
X313059Y135998D01*
X314805Y137165D01*
X315972Y138911D01*
X316381Y140970D01*
X315972Y143029D01*
X314805Y144775D01*
X313059Y145942D01*
X311000Y146351D01*
Y148289D01*
X313059Y148698D01*
X314805Y149865D01*
X315972Y151611D01*
X316381Y153670D01*
X315972Y155729D01*
X314805Y157475D01*
X313059Y158642D01*
X311000Y159051D01*
Y160989D01*
X313059Y161398D01*
X314805Y162565D01*
X315972Y164311D01*
X316381Y166370D01*
X315972Y168429D01*
X314805Y170175D01*
X313059Y171342D01*
X311000Y171751D01*
Y173689D01*
X313059Y174098D01*
X314805Y175265D01*
X315972Y177011D01*
X316381Y179070D01*
X315972Y181129D01*
X314805Y182875D01*
X313059Y184042D01*
X311000Y184451D01*
Y186389D01*
X313059Y186798D01*
X314805Y187965D01*
X315972Y189711D01*
X316381Y191770D01*
X315972Y193829D01*
X314805Y195575D01*
X313059Y196742D01*
X311000Y197151D01*
Y199089D01*
X313059Y199498D01*
X314805Y200665D01*
X315972Y202411D01*
X316381Y204470D01*
X315972Y206529D01*
X314805Y208275D01*
X313059Y209442D01*
X311989Y209655D01*
Y211726D01*
X313158Y211959D01*
X314988Y213182D01*
X316211Y215012D01*
X316640Y217170D01*
X316211Y219328D01*
X314988Y221158D01*
X313158Y222381D01*
X311000Y222810D01*
X307453D01*
Y229314D01*
X307196Y230602D01*
X306467Y231695D01*
X300831Y237331D01*
X299738Y238060D01*
X298450Y238317D01*
X288352D01*
Y241232D01*
D02*
G37*
G36*
X37798Y231930D02*
X28630D01*
Y225595D01*
X30360D01*
X32328Y225854D01*
X34162Y226614D01*
X35738Y227822D01*
X36946Y229398D01*
X37706Y231232D01*
X37798Y231930D01*
D02*
G37*
G36*
X26090D02*
X16922D01*
X17014Y231232D01*
X17774Y229398D01*
X18982Y227822D01*
X20557Y226614D01*
X22392Y225854D01*
X24360Y225595D01*
X26090D01*
Y231930D01*
D02*
G37*
G36*
X217614Y233807D02*
X214630D01*
Y228600D01*
X208280D01*
Y223520D01*
X217614D01*
Y233807D01*
D02*
G37*
G36*
X131255D02*
X121920D01*
Y223520D01*
X131255D01*
Y233807D01*
D02*
G37*
G36*
X199390D02*
X196406D01*
Y223520D01*
X205740D01*
Y228600D01*
X199390D01*
Y233807D01*
D02*
G37*
G36*
X119380D02*
X110045D01*
Y223520D01*
X119380D01*
Y233807D01*
D02*
G37*
G36*
X183783Y227457D02*
X180100D01*
Y219202D01*
X183783D01*
Y227457D01*
D02*
G37*
G36*
X177560D02*
X173877D01*
Y219202D01*
X177560D01*
Y227457D01*
D02*
G37*
G36*
X251468Y222810D02*
X245824D01*
Y218440D01*
X256856D01*
X256679Y219328D01*
X255456Y221158D01*
X253626Y222381D01*
X251468Y222810D01*
D02*
G37*
G36*
X243284D02*
X237640D01*
X235481Y222381D01*
X233652Y221158D01*
X232429Y219328D01*
X232252Y218440D01*
X243284D01*
Y222810D01*
D02*
G37*
G36*
X395971Y219662D02*
X393969D01*
X392120Y218896D01*
X391221Y217997D01*
X389970Y217672D01*
X388719Y217997D01*
X387820Y218896D01*
X385971Y219662D01*
X383969D01*
X382120Y218896D01*
X380704Y217480D01*
X379938Y215631D01*
Y213629D01*
X380704Y211780D01*
X381054Y211429D01*
X381083Y211374D01*
X381170Y211265D01*
X381199Y211220D01*
X381230Y211164D01*
X381261Y211093D01*
X381292Y211005D01*
X381322Y210896D01*
X381306Y210638D01*
X380718Y208882D01*
X376000D01*
Y195580D01*
Y182278D01*
X400262D01*
Y182532D01*
X409198D01*
Y182278D01*
X411363D01*
Y174052D01*
X409008D01*
Y161488D01*
X421572D01*
Y174052D01*
X418097D01*
Y182278D01*
X420262D01*
Y208882D01*
X409198D01*
Y208628D01*
X400262D01*
Y208882D01*
X399381D01*
X398694Y209741D01*
X398558Y209940D01*
X398378Y210914D01*
X398398Y210941D01*
X399236Y211780D01*
X400002Y213629D01*
Y215631D01*
X399236Y217480D01*
X397820Y218896D01*
X395971Y219662D01*
D02*
G37*
G36*
X169164Y238252D02*
X158496D01*
Y222450D01*
X158456Y222250D01*
Y219044D01*
X155251Y215839D01*
X153378Y216840D01*
X153492Y217410D01*
Y219202D01*
X153783D01*
Y238252D01*
X143877D01*
Y219202D01*
X143877Y219202D01*
X143877D01*
X142606Y217779D01*
X130695Y205867D01*
X110605D01*
X98676Y217796D01*
X97164Y218807D01*
X95380Y219162D01*
X87182D01*
Y221230D01*
X77470D01*
Y223770D01*
X87182D01*
Y227532D01*
X82076D01*
X81255Y228888D01*
X81015Y229564D01*
X81706Y231232D01*
X81798Y231930D01*
X68860D01*
X55922D01*
X56014Y231232D01*
X56774Y229398D01*
X57983Y227822D01*
X59558Y226614D01*
X61392Y225854D01*
X61509Y225839D01*
X61784Y223753D01*
X60870Y223375D01*
X59385Y221890D01*
X58582Y219950D01*
Y217850D01*
X59385Y215910D01*
X60870Y214426D01*
X62810Y213622D01*
X64910D01*
X65726Y213960D01*
X67758Y212679D01*
Y209468D01*
X68012D01*
Y206032D01*
X67758D01*
Y205867D01*
X55180D01*
X53892Y205610D01*
X52799Y204881D01*
X38259Y190341D01*
X37530Y189248D01*
X37273Y187960D01*
Y153459D01*
X36887Y153137D01*
X35241Y152558D01*
X34162Y153386D01*
X32328Y154146D01*
X30360Y154405D01*
X28630D01*
Y146800D01*
Y139195D01*
X30360D01*
X32328Y139454D01*
X34162Y140214D01*
X35241Y141042D01*
X36887Y140463D01*
X37273Y140141D01*
Y132142D01*
X31818D01*
Y119578D01*
X44382D01*
Y132142D01*
X44007D01*
Y186565D01*
X56574Y199133D01*
X58744D01*
X59148Y197101D01*
X58110Y196671D01*
X56694Y195255D01*
X55928Y193406D01*
Y191404D01*
X56694Y189555D01*
X58110Y188139D01*
X59959Y187373D01*
X60751D01*
X60911Y187335D01*
X61043Y187330D01*
X61078Y187325D01*
X61119Y187316D01*
X61172Y187298D01*
X61238Y187269D01*
X61320Y187226D01*
X61417Y187164D01*
X61502Y187101D01*
X63485Y185119D01*
X64577Y184389D01*
X65865Y184133D01*
X67758D01*
Y178968D01*
X68012D01*
Y176032D01*
X67758D01*
Y175867D01*
X62010D01*
X60722Y175610D01*
X59629Y174881D01*
X50959Y166211D01*
X50230Y165118D01*
X49973Y163830D01*
Y132142D01*
X49598D01*
Y119578D01*
X62162D01*
Y132142D01*
X56707D01*
Y139878D01*
X58739Y140842D01*
X59558Y140214D01*
X61392Y139454D01*
X63360Y139195D01*
X67590D01*
Y146800D01*
X68860D01*
Y148070D01*
X81798D01*
X81706Y148768D01*
X81015Y150436D01*
X81255Y151113D01*
X82076Y152468D01*
X87182D01*
Y156230D01*
X77470D01*
Y158770D01*
X87182D01*
Y160838D01*
X107080D01*
X108864Y161193D01*
X110376Y162204D01*
X123946Y175774D01*
X124957Y177286D01*
X125312Y179070D01*
Y182753D01*
X131255D01*
Y193242D01*
X150135Y212123D01*
X150525Y212066D01*
X152106Y211220D01*
Y185166D01*
X152264Y184373D01*
X152713Y183701D01*
X153385Y183252D01*
X154178Y183094D01*
X173482D01*
X174275Y183252D01*
X174947Y183701D01*
X175396Y184373D01*
X175554Y185166D01*
Y189648D01*
X196406D01*
Y182753D01*
X203643D01*
Y180464D01*
X200536Y177357D01*
X140970D01*
X139682Y177100D01*
X138589Y176371D01*
X123349Y161131D01*
X122620Y160038D01*
X122363Y158750D01*
Y129664D01*
X88929Y96231D01*
X88200Y95138D01*
X87943Y93850D01*
Y81212D01*
X85028D01*
Y78297D01*
X73722D01*
Y81212D01*
X61158D01*
Y68648D01*
X73722D01*
Y71563D01*
X85028D01*
Y68648D01*
X87943D01*
Y62162D01*
X85028D01*
Y59247D01*
X73722D01*
Y62162D01*
X61158D01*
Y49598D01*
X73722D01*
Y52513D01*
X85028D01*
Y49598D01*
X87943D01*
Y43112D01*
X85028D01*
Y40197D01*
X73722D01*
Y43112D01*
X61158D01*
Y30548D01*
X73722D01*
Y33463D01*
X85028D01*
Y30548D01*
X97592D01*
Y43112D01*
X94677D01*
Y49598D01*
X97592D01*
Y62162D01*
X94677D01*
Y68648D01*
X97592D01*
Y81212D01*
X94677D01*
Y92456D01*
X128111Y125889D01*
X128840Y126982D01*
X129097Y128270D01*
Y157355D01*
X142365Y170623D01*
X201930D01*
X203218Y170880D01*
X204311Y171609D01*
X209391Y176689D01*
X210120Y177782D01*
X210377Y179070D01*
Y182753D01*
X217614D01*
Y184618D01*
X222250D01*
X223043Y184776D01*
X223715Y185225D01*
X223715Y185225D01*
X226255Y187765D01*
X226255Y187765D01*
X226704Y188437D01*
X226862Y189230D01*
X226862Y189230D01*
Y197859D01*
X226704Y198652D01*
X226255Y199324D01*
X226255Y199324D01*
X223454Y202125D01*
X223454Y202125D01*
X223118Y202349D01*
X222782Y202574D01*
X221989Y202732D01*
X221989Y202732D01*
X219051Y202732D01*
X217614Y204169D01*
Y205867D01*
X196406D01*
Y198972D01*
X175554D01*
Y211836D01*
X175396Y212629D01*
X174947Y213301D01*
X174947Y213301D01*
X169204Y219044D01*
Y222250D01*
X169164Y222450D01*
Y238252D01*
D02*
G37*
G36*
X217614Y220980D02*
X208280D01*
Y210693D01*
X217614D01*
Y220980D01*
D02*
G37*
G36*
X205740D02*
X196406D01*
Y210693D01*
X205740D01*
Y220980D01*
D02*
G37*
G36*
X131255D02*
X121920D01*
Y210693D01*
X131255D01*
Y220980D01*
D02*
G37*
G36*
X119380D02*
X110045D01*
Y210693D01*
X119380D01*
Y220980D01*
D02*
G37*
G36*
X343460Y208882D02*
X339198D01*
Y196850D01*
X343460D01*
Y208882D01*
D02*
G37*
G36*
Y194310D02*
X339198D01*
Y182278D01*
X343460D01*
Y194310D01*
D02*
G37*
G36*
X383602Y173922D02*
X378590D01*
Y168910D01*
X383602D01*
Y173922D01*
D02*
G37*
G36*
X376050D02*
X371038D01*
Y168910D01*
X376050D01*
Y173922D01*
D02*
G37*
G36*
X383602Y166370D02*
X378590D01*
Y163398D01*
X378598Y163093D01*
X378623Y162803D01*
X378665Y162528D01*
X378723Y162268D01*
X378797Y162023D01*
X378889Y161793D01*
X378997Y161578D01*
X379121Y161378D01*
X379136Y161358D01*
X383602D01*
Y166370D01*
D02*
G37*
G36*
X376050D02*
X371038D01*
Y161358D01*
X375504D01*
X375519Y161378D01*
X375643Y161578D01*
X375751Y161793D01*
X375843Y162023D01*
X375917Y162268D01*
X375975Y162528D01*
X376017Y162803D01*
X376042Y163093D01*
X376050Y163398D01*
D01*
Y166370D01*
D02*
G37*
G36*
X154742Y154872D02*
X149730D01*
Y149860D01*
X154742D01*
Y154872D01*
D02*
G37*
G36*
X147190D02*
X142178D01*
Y149860D01*
X147190D01*
Y154872D01*
D02*
G37*
G36*
X26090Y154405D02*
X24360D01*
X22392Y154146D01*
X20557Y153386D01*
X18982Y152177D01*
X17774Y150603D01*
X17014Y148768D01*
X16922Y148070D01*
X26090D01*
Y154405D01*
D02*
G37*
G36*
X256856Y215900D02*
X244554D01*
X232252D01*
X232429Y215012D01*
X233652Y213182D01*
X235481Y211959D01*
X236000Y211856D01*
Y209784D01*
X235481Y209681D01*
X233652Y208458D01*
X232429Y206628D01*
X232000Y204470D01*
X232429Y202311D01*
X233652Y200482D01*
X235481Y199259D01*
X236000Y199156D01*
Y197084D01*
X235481Y196981D01*
X233652Y195758D01*
X232429Y193929D01*
X232000Y191770D01*
X232429Y189611D01*
X233652Y187782D01*
X235481Y186559D01*
X236000Y186456D01*
Y184384D01*
X235481Y184281D01*
X233652Y183058D01*
X232429Y181229D01*
X232000Y179070D01*
X232429Y176912D01*
X233652Y175082D01*
X235481Y173859D01*
X236000Y173756D01*
Y171684D01*
X235481Y171581D01*
X233652Y170358D01*
X232720Y170636D01*
X230871Y171402D01*
X228869D01*
X227020Y170636D01*
X225604Y169220D01*
X224838Y167371D01*
Y165369D01*
X225604Y163520D01*
X227020Y162104D01*
X228869Y161338D01*
X230871D01*
X232720Y162104D01*
X233652Y162382D01*
X235481Y161159D01*
X236000Y161056D01*
Y158984D01*
X235481Y158881D01*
X233652Y157658D01*
X232720Y157936D01*
X230871Y158702D01*
X228869D01*
X227020Y157936D01*
X225604Y156520D01*
X224928Y154889D01*
X223611Y154345D01*
X222961Y154173D01*
X222806Y154173D01*
X208640D01*
X201682Y161131D01*
X200590Y161860D01*
X199302Y162117D01*
X174310D01*
X173022Y161860D01*
X171929Y161131D01*
X165671Y154872D01*
X157678D01*
Y142308D01*
X170242D01*
Y149921D01*
X175196Y154875D01*
X177514Y154846D01*
X178381Y153919D01*
X178381Y153351D01*
Y137598D01*
X178127Y135671D01*
X178127Y134436D01*
Y126557D01*
X170242D01*
Y129472D01*
X157678D01*
Y116908D01*
X170242D01*
Y119823D01*
X178127D01*
Y117607D01*
X192680D01*
X199638Y110649D01*
X200730Y109920D01*
X202018Y109663D01*
X238760D01*
X240048Y109920D01*
X241141Y110649D01*
X246935Y116443D01*
X247664Y117536D01*
X247921Y118824D01*
Y122630D01*
X251468D01*
X253626Y123059D01*
X255456Y124282D01*
X256679Y126111D01*
X257108Y128270D01*
X256679Y130428D01*
X255456Y132258D01*
X253626Y133481D01*
X253108Y133584D01*
Y135656D01*
X253626Y135759D01*
X255456Y136982D01*
X256679Y138812D01*
X257108Y140970D01*
X256679Y143128D01*
X255456Y144958D01*
X253626Y146181D01*
X253108Y146284D01*
Y148356D01*
X253626Y148459D01*
X255456Y149682D01*
X256679Y151511D01*
X257108Y153670D01*
X256679Y155829D01*
X255456Y157658D01*
X253626Y158881D01*
X253108Y158984D01*
Y161056D01*
X253626Y161159D01*
X255456Y162382D01*
X256679Y164212D01*
X257108Y166370D01*
X256679Y168528D01*
X255456Y170358D01*
X253626Y171581D01*
X253108Y171684D01*
Y173756D01*
X253626Y173859D01*
X255456Y175082D01*
X256388Y174804D01*
X258237Y174038D01*
X260239D01*
X262088Y174804D01*
X263504Y176220D01*
X264118Y177701D01*
X265491Y178390D01*
X266302Y178604D01*
X267143Y177973D01*
Y70174D01*
X267128Y70069D01*
X267103Y69957D01*
X267076Y69868D01*
X267049Y69801D01*
X267024Y69752D01*
X267001Y69715D01*
X266980Y69688D01*
X266890Y69591D01*
X266804Y69451D01*
X266244Y68890D01*
X265478Y67041D01*
Y66249D01*
X265440Y66089D01*
X265435Y65957D01*
X265430Y65922D01*
X265420Y65880D01*
X265403Y65828D01*
X265374Y65761D01*
X265331Y65680D01*
X265269Y65583D01*
X265207Y65498D01*
X257769Y58060D01*
X255737Y58178D01*
X255456Y58598D01*
X253626Y59821D01*
X253108Y59924D01*
Y61996D01*
X253626Y62099D01*
X255456Y63322D01*
X256679Y65152D01*
X257108Y67310D01*
X256679Y69468D01*
X255456Y71298D01*
X253626Y72521D01*
X253108Y72624D01*
Y74696D01*
X253626Y74799D01*
X255456Y76022D01*
X256679Y77852D01*
X257108Y80010D01*
X256679Y82169D01*
X255456Y83998D01*
X253626Y85221D01*
X253108Y85324D01*
Y87396D01*
X253626Y87499D01*
X255456Y88722D01*
X256679Y90552D01*
X257108Y92710D01*
X256679Y94868D01*
X255456Y96698D01*
X253626Y97921D01*
X251468Y98350D01*
X237640D01*
X235481Y97921D01*
X233652Y96698D01*
X233236Y96077D01*
X229995D01*
X224631Y101441D01*
X223538Y102170D01*
X222250Y102427D01*
X151560D01*
X150272Y102170D01*
X149179Y101441D01*
X139162Y91423D01*
X139028Y91308D01*
X138949Y91250D01*
X136780Y92148D01*
X133900Y92527D01*
X131020Y92148D01*
X128336Y91036D01*
X126032Y89268D01*
X124264Y86964D01*
X123365Y84795D01*
X123268Y84781D01*
X123091Y84767D01*
X122040D01*
X120752Y84510D01*
X119659Y83781D01*
X115124Y79245D01*
X113092Y80087D01*
Y81212D01*
X100528D01*
Y68648D01*
X113092D01*
Y71563D01*
X115570D01*
X116858Y71820D01*
X117951Y72549D01*
X122084Y76683D01*
X124077Y76287D01*
X124264Y75836D01*
X126032Y73532D01*
X128336Y71764D01*
X131020Y70652D01*
X133900Y70273D01*
X136780Y70652D01*
X139464Y71764D01*
X141768Y73532D01*
X143536Y75836D01*
X144648Y78520D01*
X145027Y81400D01*
X144648Y84280D01*
X143750Y86449D01*
X143808Y86528D01*
X143924Y86662D01*
X152955Y95693D01*
X220856D01*
X226219Y90329D01*
X227312Y89600D01*
X228600Y89343D01*
X233236D01*
X233652Y88722D01*
X235481Y87499D01*
X236000Y87396D01*
Y85324D01*
X235481Y85221D01*
X233652Y83998D01*
X233236Y83377D01*
X228600D01*
X227312Y83120D01*
X226219Y82391D01*
X223571Y79742D01*
X222784Y80130D01*
X210100D01*
X198628D01*
X198857Y78387D01*
X200020Y75580D01*
X201249Y73979D01*
X200247Y71947D01*
X146480D01*
X145192Y71690D01*
X144099Y70961D01*
X139162Y66023D01*
X139028Y65908D01*
X138949Y65850D01*
X136780Y66748D01*
X133900Y67127D01*
X131020Y66748D01*
X128336Y65636D01*
X126032Y63868D01*
X124264Y61564D01*
X123313Y59269D01*
X123252Y59260D01*
X123077Y59247D01*
X113092D01*
Y62162D01*
X100528D01*
Y49598D01*
X113092D01*
Y52513D01*
X123105D01*
X123284Y52499D01*
X123417Y52480D01*
X124264Y50436D01*
X126032Y48132D01*
X128336Y46364D01*
X131020Y45252D01*
X133900Y44873D01*
X136780Y45252D01*
X139464Y46364D01*
X141768Y48132D01*
X143536Y50436D01*
X144648Y53120D01*
X145027Y56000D01*
X144648Y58880D01*
X143750Y61049D01*
X143808Y61128D01*
X143924Y61262D01*
X147875Y65213D01*
X200063D01*
X201065Y63181D01*
X200020Y61820D01*
X198857Y59012D01*
X198628Y57270D01*
X210100D01*
Y54730D01*
X198628D01*
X198857Y52987D01*
X200020Y50180D01*
X201249Y48579D01*
X200247Y46547D01*
X146480D01*
X145192Y46290D01*
X144099Y45561D01*
X139162Y40623D01*
X139028Y40508D01*
X138949Y40450D01*
X136780Y41348D01*
X133900Y41727D01*
X131020Y41348D01*
X128336Y40236D01*
X126032Y38468D01*
X124264Y36164D01*
X124149Y35886D01*
X121752Y35410D01*
X117951Y39211D01*
X116858Y39940D01*
X115570Y40197D01*
X113092D01*
Y43112D01*
X100528D01*
Y30548D01*
X113092D01*
Y31673D01*
X115124Y32515D01*
X119419Y28219D01*
X120512Y27490D01*
X121800Y27233D01*
X123091D01*
X123268Y27220D01*
X123365Y27205D01*
X124264Y25036D01*
X126032Y22732D01*
X128336Y20964D01*
X131020Y19852D01*
X133900Y19473D01*
X136780Y19852D01*
X139464Y20964D01*
X141768Y22732D01*
X143536Y25036D01*
X144648Y27720D01*
X145027Y30600D01*
X144648Y33480D01*
X143750Y35649D01*
X143808Y35728D01*
X143924Y35862D01*
X147875Y39813D01*
X200063D01*
X201065Y37781D01*
X200020Y36420D01*
X198857Y33612D01*
X198628Y31870D01*
X210100D01*
X221572D01*
X221343Y33612D01*
X220180Y36420D01*
X219135Y37781D01*
X220138Y39813D01*
X220980D01*
X222268Y40070D01*
X223361Y40799D01*
X227171Y44609D01*
X227900Y45702D01*
X228157Y46990D01*
Y62105D01*
X229995Y63943D01*
X233236D01*
X233652Y63322D01*
X235481Y62099D01*
X236000Y61996D01*
Y59924D01*
X235481Y59821D01*
X233652Y58598D01*
X232429Y56768D01*
X232000Y54610D01*
X232429Y52452D01*
X233652Y50622D01*
X235481Y49399D01*
X236000Y49296D01*
Y47224D01*
X235481Y47121D01*
X233652Y45898D01*
X232429Y44068D01*
X232000Y41910D01*
X232429Y39752D01*
X233652Y37922D01*
X235481Y36699D01*
X236000Y36596D01*
Y34524D01*
X235481Y34421D01*
X233652Y33198D01*
X232429Y31369D01*
X232000Y29210D01*
X232429Y27051D01*
X233652Y25222D01*
X235481Y23999D01*
X236000Y23896D01*
Y21824D01*
X235481Y21721D01*
X233652Y20498D01*
X232429Y18669D01*
X232252Y17780D01*
X244554D01*
X256856D01*
X256679Y18669D01*
X255456Y20498D01*
X253626Y21721D01*
X253108Y21824D01*
Y23896D01*
X253626Y23999D01*
X255456Y25222D01*
X255872Y25843D01*
X284917D01*
X284923Y25837D01*
Y19050D01*
X285180Y17762D01*
X285909Y16669D01*
X288449Y14129D01*
X289542Y13400D01*
X290830Y13143D01*
X292768D01*
X293184Y12522D01*
X295014Y11299D01*
X297172Y10870D01*
X311000D01*
X313158Y11299D01*
X314988Y12522D01*
X315404Y13143D01*
X326328D01*
Y10228D01*
X338892D01*
Y22792D01*
X338892D01*
X339304Y24006D01*
X340457D01*
X341828Y22144D01*
Y17780D01*
X354392D01*
Y22541D01*
X354392Y22792D01*
X354997Y24573D01*
X407670D01*
X408958Y24830D01*
X410051Y25559D01*
X417541Y33049D01*
X418270Y34142D01*
X418527Y35430D01*
Y45590D01*
Y91570D01*
X418270Y92858D01*
X417541Y93951D01*
X410051Y101441D01*
X408958Y102170D01*
X407670Y102427D01*
X351914D01*
X346267Y108075D01*
Y124016D01*
X354457D01*
Y145225D01*
X346414D01*
X346328Y147256D01*
X347975Y148903D01*
X409008D01*
Y145988D01*
X421572D01*
Y158552D01*
X409008D01*
Y155637D01*
X365323D01*
X365187Y155773D01*
Y161358D01*
X368102D01*
Y173922D01*
X368097D01*
Y182278D01*
X373460D01*
Y195580D01*
Y208882D01*
X359198D01*
Y208628D01*
X350262D01*
Y208882D01*
X346000D01*
Y195580D01*
Y182278D01*
X350262D01*
Y182532D01*
X359198D01*
Y182278D01*
X361363D01*
Y173922D01*
X355538D01*
Y161358D01*
X358453D01*
Y155773D01*
X358317Y155637D01*
X346580D01*
X345292Y155380D01*
X344199Y154651D01*
X340519Y150971D01*
X339790Y149878D01*
X339533Y148590D01*
Y145225D01*
X331343D01*
Y144312D01*
X327660D01*
X326867Y144154D01*
X326195Y143705D01*
X326195Y143705D01*
X323655Y141165D01*
X323655Y141165D01*
X323206Y140493D01*
X323048Y139700D01*
X323048Y139700D01*
Y131071D01*
X323206Y130278D01*
X323655Y129606D01*
X323655Y129606D01*
X326456Y126805D01*
X326456Y126805D01*
X327128Y126356D01*
X327921Y126198D01*
X327921Y126198D01*
X329906Y126198D01*
X331343Y124761D01*
Y124016D01*
X339533D01*
Y106680D01*
X339790Y105392D01*
X340519Y104299D01*
X348139Y96679D01*
X349232Y95950D01*
X350520Y95693D01*
X406275D01*
X411793Y90176D01*
Y48963D01*
X411787Y48957D01*
X398712D01*
Y51872D01*
X386148D01*
Y47456D01*
X375593D01*
Y53121D01*
X375593D01*
X375593Y53559D01*
X375593D01*
Y71623D01*
X355029D01*
Y53559D01*
X355029D01*
X355029Y53121D01*
X355029D01*
Y35057D01*
X375593D01*
Y40722D01*
X386148D01*
Y39308D01*
X398712D01*
Y42223D01*
X411787D01*
X411793Y42217D01*
Y36825D01*
X406275Y31307D01*
X336550D01*
X335262Y31050D01*
X334169Y30321D01*
X330359Y26511D01*
X329630Y25418D01*
X329373Y24130D01*
Y22792D01*
X326328D01*
Y19877D01*
X315404D01*
X314988Y20498D01*
X313158Y21721D01*
X312640Y21824D01*
Y23896D01*
X313158Y23999D01*
X314988Y25222D01*
X315404Y25843D01*
X324554D01*
X325842Y26100D01*
X326934Y26829D01*
X335162Y35057D01*
X351091D01*
Y51527D01*
X351091Y53121D01*
X351091Y55153D01*
Y61321D01*
X330527D01*
Y55153D01*
X330527Y53559D01*
X330527Y51527D01*
Y39945D01*
X323159Y32577D01*
X315404D01*
X314988Y33198D01*
X313158Y34421D01*
X311989Y34654D01*
Y36725D01*
X313059Y36938D01*
X314805Y38105D01*
X315972Y39851D01*
X316381Y41910D01*
X315972Y43969D01*
X314805Y45715D01*
X313059Y46882D01*
X311989Y47095D01*
Y49166D01*
X313158Y49399D01*
X314988Y50622D01*
X316211Y52452D01*
X316640Y54610D01*
X316211Y56768D01*
X314988Y58598D01*
X313158Y59821D01*
X312640Y59924D01*
Y61996D01*
X313158Y62099D01*
X314988Y63322D01*
X315404Y63943D01*
X317176D01*
X317281Y63928D01*
X317393Y63903D01*
X317482Y63875D01*
X317549Y63849D01*
X317598Y63824D01*
X317635Y63801D01*
X317662Y63780D01*
X317759Y63690D01*
X317899Y63604D01*
X318460Y63044D01*
X320309Y62278D01*
X322311D01*
X324160Y63044D01*
X325576Y64460D01*
X326342Y66309D01*
Y68311D01*
X325576Y70160D01*
X324160Y71576D01*
X322311Y72342D01*
X320309D01*
X318460Y71576D01*
X317899Y71016D01*
X317759Y70930D01*
X317662Y70840D01*
X317635Y70819D01*
X317598Y70796D01*
X317549Y70771D01*
X317482Y70745D01*
X317393Y70718D01*
X317281Y70693D01*
X317176Y70677D01*
X315404D01*
X314988Y71298D01*
X313158Y72521D01*
X312640Y72624D01*
Y74696D01*
X313158Y74799D01*
X314988Y76022D01*
X315404Y76643D01*
X325120D01*
X326408Y76900D01*
X327501Y77629D01*
X330928Y81056D01*
X331013Y81119D01*
X331110Y81181D01*
X331191Y81224D01*
X331258Y81253D01*
X331311Y81271D01*
X331352Y81280D01*
X331387Y81285D01*
X331519Y81290D01*
X331679Y81328D01*
X332471D01*
X334320Y82094D01*
X335736Y83510D01*
X336502Y85359D01*
Y87361D01*
X335736Y89210D01*
X334320Y90626D01*
X332471Y91392D01*
X330469D01*
X328620Y90626D01*
X327204Y89210D01*
X326438Y87361D01*
Y86569D01*
X326400Y86409D01*
X326395Y86277D01*
X326390Y86242D01*
X326381Y86201D01*
X326363Y86148D01*
X326334Y86081D01*
X326291Y86000D01*
X326229Y85903D01*
X326166Y85818D01*
X323726Y83377D01*
X315404D01*
X314988Y83998D01*
X313158Y85221D01*
X312640Y85324D01*
Y87396D01*
X313158Y87499D01*
X314988Y88722D01*
X316211Y90552D01*
X316640Y92710D01*
X316211Y94868D01*
X314988Y96698D01*
X313158Y97921D01*
X311000Y98350D01*
X297172D01*
X295014Y97921D01*
X293184Y96698D01*
X292768Y96077D01*
X290830D01*
X289542Y95820D01*
X288449Y95091D01*
X285909Y92551D01*
X285180Y91458D01*
X284923Y90170D01*
Y81597D01*
X282891Y80422D01*
X282800Y80474D01*
X282767Y80550D01*
Y184150D01*
X282510Y185438D01*
X281781Y186531D01*
X261461Y206851D01*
X260368Y207580D01*
X259080Y207837D01*
X255872D01*
X255456Y208458D01*
X253626Y209681D01*
X253108Y209784D01*
Y211856D01*
X253626Y211959D01*
X255456Y213182D01*
X256679Y215012D01*
X256856Y215900D01*
D02*
G37*
G36*
X154742Y147320D02*
X149730D01*
Y142308D01*
X154742D01*
Y147320D01*
D02*
G37*
G36*
X147190D02*
X142178D01*
Y142308D01*
X147190D01*
Y147320D01*
D02*
G37*
G36*
X382397Y145225D02*
X372110D01*
Y142240D01*
X382397D01*
Y145225D01*
D02*
G37*
G36*
X81798Y145530D02*
X70130D01*
Y139195D01*
X74360D01*
X76329Y139454D01*
X78163Y140214D01*
X79738Y141422D01*
X80946Y142998D01*
X81706Y144832D01*
X81798Y145530D01*
D02*
G37*
G36*
X26090Y145530D02*
X16922D01*
X17014Y144832D01*
X17774Y142997D01*
X18982Y141422D01*
X20557Y140214D01*
X22392Y139454D01*
X24360Y139195D01*
X26090D01*
Y145530D01*
D02*
G37*
G36*
X369570Y145225D02*
X359283D01*
Y135890D01*
X369570D01*
Y145225D01*
D02*
G37*
G36*
X154742Y129472D02*
X149730D01*
Y124460D01*
X154742D01*
Y129472D01*
D02*
G37*
G36*
X147190D02*
X142178D01*
Y124460D01*
X147190D01*
Y129472D01*
D02*
G37*
G36*
X372110Y127000D02*
Y124016D01*
X382397D01*
Y127000D01*
X372110D01*
D02*
G37*
G36*
X369570Y133350D02*
X359283D01*
Y124016D01*
X369570D01*
Y133350D01*
D02*
G37*
G36*
X154742Y121920D02*
X149730D01*
Y116908D01*
X154742D01*
Y121920D01*
D02*
G37*
G36*
X147190D02*
X142178D01*
Y116908D01*
X147190D01*
Y121920D01*
D02*
G37*
G36*
X62162Y116642D02*
X57150D01*
Y111630D01*
X62162D01*
Y116642D01*
D02*
G37*
G36*
X44382D02*
X39370D01*
Y111630D01*
X44382D01*
Y116642D01*
D02*
G37*
G36*
X54610D02*
X49598D01*
Y111630D01*
X54610D01*
Y116642D01*
D02*
G37*
G36*
X36830D02*
X31818D01*
Y111630D01*
X36830D01*
Y116642D01*
D02*
G37*
G36*
X62162Y109090D02*
X57150D01*
Y104078D01*
X62162D01*
Y109090D01*
D02*
G37*
G36*
X54610D02*
X49598D01*
Y104078D01*
X54610D01*
Y109090D01*
D02*
G37*
G36*
X44382D02*
X39370D01*
Y104078D01*
X44382D01*
Y109090D01*
D02*
G37*
G36*
X36830D02*
X31818D01*
Y104078D01*
X36830D01*
Y109090D01*
D02*
G37*
G36*
X211370Y92872D02*
Y82670D01*
X221572D01*
X221343Y84412D01*
X220180Y87220D01*
X218330Y89630D01*
X215920Y91480D01*
X213113Y92643D01*
X211370Y92872D01*
D02*
G37*
G36*
X208830D02*
X207087Y92643D01*
X204280Y91480D01*
X201870Y89630D01*
X200020Y87220D01*
X198857Y84412D01*
X198628Y82670D01*
X208830D01*
Y92872D01*
D02*
G37*
G36*
X58222Y81212D02*
X45658D01*
Y78297D01*
X39432D01*
Y81212D01*
X26868D01*
Y68648D01*
X39432D01*
Y71563D01*
X45658D01*
Y68648D01*
X58222D01*
Y81212D01*
D02*
G37*
G36*
X351091Y71623D02*
X342079D01*
Y63861D01*
X351091D01*
Y71623D01*
D02*
G37*
G36*
X339539D02*
X330527D01*
Y63861D01*
X339539D01*
Y71623D01*
D02*
G37*
G36*
X398712Y67372D02*
X393700D01*
Y62360D01*
X398712D01*
Y67372D01*
D02*
G37*
G36*
X391160D02*
X386148D01*
Y62360D01*
X391160D01*
Y67372D01*
D02*
G37*
G36*
X58222Y62162D02*
X45658D01*
Y59247D01*
X39432D01*
Y62162D01*
X26868D01*
Y49598D01*
X39432D01*
Y52513D01*
X45658D01*
Y49598D01*
X58222D01*
Y62162D01*
D02*
G37*
G36*
X398712Y59820D02*
X393700D01*
Y54808D01*
X398712D01*
Y59820D01*
D02*
G37*
G36*
X391160D02*
X386148D01*
Y54808D01*
X391160D01*
Y59820D01*
D02*
G37*
G36*
X18651Y88722D02*
X16649D01*
X14800Y87956D01*
X13384Y86540D01*
X12618Y84691D01*
Y82689D01*
X11631Y81212D01*
X11368D01*
Y68648D01*
X11887D01*
X13022Y66616D01*
X12618Y65641D01*
Y63639D01*
X11631Y62162D01*
X11368D01*
Y49598D01*
X23932D01*
Y62162D01*
X23669D01*
X22682Y63639D01*
Y65641D01*
X22278Y66616D01*
X23413Y68648D01*
X23932D01*
Y81212D01*
X23669D01*
X22682Y82689D01*
Y84691D01*
X21916Y86540D01*
X20500Y87956D01*
X18651Y88722D01*
D02*
G37*
G36*
X58222Y43112D02*
X45658D01*
Y40197D01*
X39432D01*
Y43112D01*
X26868D01*
Y30548D01*
X39432D01*
Y33463D01*
X45658D01*
Y30548D01*
X58222D01*
Y43112D01*
D02*
G37*
G36*
X23932D02*
X19466D01*
X19451Y43092D01*
X19327Y42892D01*
X19219Y42677D01*
X19128Y42447D01*
X19053Y42202D01*
X18995Y41942D01*
X18953Y41667D01*
X18928Y41377D01*
X18920Y41072D01*
Y38100D01*
X23932D01*
Y43112D01*
D02*
G37*
G36*
X15834D02*
X11368D01*
Y38100D01*
X16380D01*
Y41072D01*
X16372Y41377D01*
X16347Y41667D01*
X16305Y41942D01*
X16247Y42202D01*
X16172Y42447D01*
X16081Y42677D01*
X15973Y42892D01*
X15849Y43092D01*
X15834Y43112D01*
D02*
G37*
G36*
X23932Y35560D02*
X18920D01*
Y30548D01*
X23932D01*
Y35560D01*
D02*
G37*
G36*
X16380D02*
X11368D01*
Y30548D01*
X16380D01*
Y35560D01*
D02*
G37*
G36*
X221572Y29330D02*
X211370D01*
Y19128D01*
X213113Y19357D01*
X215920Y20520D01*
X218330Y22370D01*
X220180Y24780D01*
X221343Y27587D01*
X221572Y29330D01*
D02*
G37*
G36*
X208830D02*
X198628D01*
X198857Y27587D01*
X200020Y24780D01*
X201870Y22370D01*
X204280Y20520D01*
X207087Y19357D01*
X208830Y19128D01*
Y29330D01*
D02*
G37*
G36*
X256856Y15240D02*
X245824D01*
Y10870D01*
X251468D01*
X253626Y11299D01*
X255456Y12522D01*
X256679Y14352D01*
X256856Y15240D01*
D02*
G37*
G36*
X243284D02*
X232252D01*
X232429Y14352D01*
X233652Y12522D01*
X235481Y11299D01*
X237640Y10870D01*
X243284D01*
Y15240D01*
D02*
G37*
G36*
X354392D02*
X349380D01*
Y10228D01*
X354392D01*
Y15240D01*
D02*
G37*
G36*
X346840D02*
X341828D01*
Y10228D01*
X346840D01*
Y15240D01*
D02*
G37*
%LPD*%
G36*
X276633Y225462D02*
X276818Y225321D01*
X277018Y225197D01*
X277233Y225089D01*
X277463Y224998D01*
X277708Y224923D01*
X277968Y224865D01*
X278243Y224823D01*
X278533Y224798D01*
X278838Y224790D01*
Y222250D01*
X278533Y222242D01*
X278243Y222217D01*
X277968Y222175D01*
X277708Y222117D01*
X277463Y222043D01*
X277233Y221951D01*
X277018Y221843D01*
X276818Y221719D01*
X276633Y221578D01*
X276462Y221420D01*
Y225620D01*
X276633Y225462D01*
D02*
G37*
G36*
X291715Y219112D02*
X291900Y218971D01*
X292100Y218847D01*
X292315Y218739D01*
X292545Y218647D01*
X292790Y218573D01*
X293050Y218515D01*
X293325Y218473D01*
X293615Y218448D01*
X293920Y218440D01*
Y215900D01*
X293615Y215892D01*
X293325Y215867D01*
X293050Y215825D01*
X292790Y215767D01*
X292545Y215693D01*
X292315Y215601D01*
X292100Y215493D01*
X291900Y215369D01*
X291715Y215228D01*
X291544Y215070D01*
Y219270D01*
X291715Y219112D01*
D02*
G37*
G36*
X396892Y212326D02*
X396722Y212169D01*
X396571Y211996D01*
X396437Y211806D01*
X396321Y211599D01*
X396223Y211376D01*
X396143Y211136D01*
X396080Y210880D01*
X396036Y210607D01*
X396009Y210318D01*
X396000Y210012D01*
X393460Y210238D01*
X393452Y210542D01*
X393430Y210833D01*
X393392Y211110D01*
X393339Y211373D01*
X393271Y211622D01*
X393188Y211858D01*
X393090Y212079D01*
X392977Y212288D01*
X392849Y212482D01*
X392705Y212662D01*
X396892Y212326D01*
D02*
G37*
G36*
X386892D02*
X386722Y212169D01*
X386571Y211996D01*
X386437Y211806D01*
X386321Y211599D01*
X386223Y211376D01*
X386143Y211136D01*
X386080Y210880D01*
X386036Y210607D01*
X386009Y210318D01*
X386000Y210012D01*
X383460Y210238D01*
X383452Y210542D01*
X383430Y210833D01*
X383392Y211110D01*
X383339Y211373D01*
X383271Y211622D01*
X383188Y211858D01*
X383090Y212079D01*
X382977Y212288D01*
X382849Y212482D01*
X382705Y212662D01*
X386892Y212326D01*
D02*
G37*
G36*
X65053Y194702D02*
X64843Y194480D01*
X64655Y194258D01*
X64490Y194034D01*
X64348Y193809D01*
X64227Y193583D01*
X64129Y193356D01*
X64053Y193127D01*
X64000Y192898D01*
X63969Y192667D01*
X63960Y192435D01*
X60990Y195405D01*
X61222Y195414D01*
X61453Y195445D01*
X61682Y195498D01*
X61911Y195574D01*
X62138Y195672D01*
X62364Y195793D01*
X62589Y195935D01*
X62812Y196101D01*
X63035Y196288D01*
X63257Y196498D01*
X65053Y194702D01*
D02*
G37*
G36*
X63969Y192143D02*
X64000Y191912D01*
X64053Y191683D01*
X64129Y191455D01*
X64227Y191227D01*
X64348Y191001D01*
X64490Y190776D01*
X64655Y190553D01*
X64843Y190330D01*
X65053Y190108D01*
X63257Y188312D01*
X63035Y188522D01*
X62812Y188710D01*
X62589Y188875D01*
X62364Y189017D01*
X62138Y189138D01*
X61911Y189236D01*
X61682Y189312D01*
X61453Y189365D01*
X61222Y189396D01*
X60990Y189405D01*
X63960Y192375D01*
X63969Y192143D01*
D02*
G37*
G36*
X91905Y191208D02*
X92128Y191021D01*
X92351Y190855D01*
X92576Y190713D01*
X92802Y190592D01*
X93029Y190494D01*
X93258Y190418D01*
X93487Y190365D01*
X93718Y190334D01*
X93950Y190325D01*
X90980Y187355D01*
X90971Y187587D01*
X90940Y187818D01*
X90887Y188047D01*
X90811Y188276D01*
X90713Y188503D01*
X90592Y188729D01*
X90450Y188954D01*
X90285Y189177D01*
X90097Y189400D01*
X89887Y189622D01*
X91683Y191418D01*
X91905Y191208D01*
D02*
G37*
G36*
X224790Y197859D02*
Y189230D01*
X222250Y186690D01*
X207010D01*
Y200660D01*
X221989Y200660D01*
X224790Y197859D01*
D02*
G37*
G36*
X167132Y218186D02*
X173482Y211836D01*
Y185166D01*
X154178D01*
Y211836D01*
X160528Y218186D01*
Y222250D01*
X167132D01*
Y218186D01*
D02*
G37*
G36*
X93950Y184325D02*
X93718Y184316D01*
X93487Y184285D01*
X93258Y184232D01*
X93029Y184156D01*
X92802Y184058D01*
X92576Y183937D01*
X92351Y183795D01*
X92128Y183629D01*
X91905Y183442D01*
X91683Y183232D01*
X89887Y185028D01*
X90097Y185250D01*
X90285Y185473D01*
X90450Y185696D01*
X90592Y185921D01*
X90713Y186147D01*
X90811Y186374D01*
X90887Y186603D01*
X90940Y186832D01*
X90971Y187063D01*
X90980Y187295D01*
X93950Y184325D01*
D02*
G37*
G36*
X110045Y193242D02*
Y182753D01*
X115313D01*
X115709Y180721D01*
X105149Y170162D01*
X87182D01*
Y176032D01*
X86928D01*
Y178968D01*
X87182D01*
Y179133D01*
X89155D01*
X90443Y179389D01*
X91536Y180119D01*
X93438Y182022D01*
X93523Y182084D01*
X93620Y182146D01*
X93701Y182189D01*
X93768Y182218D01*
X93821Y182236D01*
X93862Y182245D01*
X93897Y182250D01*
X94029Y182255D01*
X94189Y182293D01*
X94981D01*
X96830Y183059D01*
X98246Y184475D01*
X99012Y186324D01*
Y188326D01*
X98246Y190175D01*
X96830Y191591D01*
X94981Y192357D01*
X94189D01*
X94029Y192395D01*
X93897Y192400D01*
X93862Y192405D01*
X93820Y192414D01*
X93768Y192432D01*
X93701Y192461D01*
X93620Y192504D01*
X93523Y192566D01*
X93438Y192628D01*
X91186Y194881D01*
X90093Y195610D01*
X88805Y195867D01*
X87182D01*
Y206032D01*
X86928D01*
Y209468D01*
X87182D01*
Y209839D01*
X93449D01*
X110045Y193242D01*
D02*
G37*
G36*
X257096Y176970D02*
X256925Y177128D01*
X256740Y177269D01*
X256540Y177393D01*
X256325Y177501D01*
X256095Y177593D01*
X255850Y177667D01*
X255590Y177725D01*
X255315Y177767D01*
X255025Y177792D01*
X254720Y177800D01*
Y180340D01*
X255025Y180348D01*
X255315Y180373D01*
X255590Y180415D01*
X255850Y180473D01*
X256095Y180548D01*
X256325Y180639D01*
X256540Y180747D01*
X256740Y180871D01*
X256925Y181012D01*
X257096Y181170D01*
Y176970D01*
D02*
G37*
G36*
X232183Y168312D02*
X232368Y168171D01*
X232568Y168047D01*
X232783Y167939D01*
X233013Y167847D01*
X233258Y167773D01*
X233518Y167715D01*
X233793Y167673D01*
X234083Y167648D01*
X234388Y167640D01*
Y165100D01*
X234083Y165092D01*
X233793Y165067D01*
X233518Y165025D01*
X233258Y164967D01*
X233013Y164893D01*
X232783Y164801D01*
X232568Y164693D01*
X232368Y164569D01*
X232183Y164428D01*
X232012Y164270D01*
Y168470D01*
X232183Y168312D01*
D02*
G37*
G36*
X365630Y152400D02*
X358010D01*
X361820Y156210D01*
X365630Y152400D01*
D02*
G37*
G36*
X232183Y155612D02*
X232368Y155471D01*
X232568Y155347D01*
X232783Y155239D01*
X233013Y155147D01*
X233258Y155073D01*
X233518Y155015D01*
X233793Y154973D01*
X234083Y154948D01*
X234388Y154940D01*
Y152400D01*
X234083Y152392D01*
X233793Y152367D01*
X233518Y152325D01*
X233258Y152267D01*
X233013Y152192D01*
X232783Y152101D01*
X232568Y151993D01*
X232368Y151869D01*
X232183Y151728D01*
X232012Y151570D01*
Y155770D01*
X232183Y155612D01*
D02*
G37*
G36*
X342900Y128270D02*
X327921Y128270D01*
X325120Y131071D01*
Y139700D01*
X327660Y142240D01*
X342900D01*
Y128270D01*
D02*
G37*
G36*
X142879Y88583D02*
X142504Y88190D01*
X142188Y87820D01*
X141930Y87473D01*
X141730Y87148D01*
X141588Y86846D01*
X141504Y86566D01*
X141479Y86309D01*
X141512Y86074D01*
X141603Y85862D01*
X141752Y85673D01*
X138173Y89252D01*
X138362Y89103D01*
X138574Y89012D01*
X138809Y88979D01*
X139066Y89004D01*
X139346Y89088D01*
X139648Y89230D01*
X139973Y89430D01*
X140320Y89688D01*
X140690Y90004D01*
X141083Y90379D01*
X142879Y88583D01*
D02*
G37*
G36*
X331440Y83360D02*
X331208Y83351D01*
X330977Y83320D01*
X330748Y83267D01*
X330519Y83191D01*
X330292Y83093D01*
X330066Y82972D01*
X329841Y82830D01*
X329618Y82664D01*
X329395Y82477D01*
X329173Y82267D01*
X327377Y84063D01*
X327587Y84285D01*
X327775Y84508D01*
X327940Y84731D01*
X328082Y84956D01*
X328203Y85182D01*
X328301Y85409D01*
X328377Y85638D01*
X328430Y85867D01*
X328461Y86098D01*
X328470Y86330D01*
X331440Y83360D01*
D02*
G37*
G36*
X125327Y78869D02*
X125298Y79109D01*
X125212Y79323D01*
X125070Y79512D01*
X124870Y79676D01*
X124613Y79815D01*
X124299Y79928D01*
X123928Y80016D01*
X123500Y80079D01*
X123014Y80117D01*
X122472Y80130D01*
Y82670D01*
X123014Y82683D01*
X123500Y82720D01*
X123928Y82783D01*
X124299Y82872D01*
X124613Y82985D01*
X124870Y83124D01*
X125070Y83288D01*
X125212Y83477D01*
X125298Y83692D01*
X125327Y83931D01*
Y78869D01*
D02*
G37*
G36*
X280678Y79143D02*
X280703Y78853D01*
X280745Y78578D01*
X280803Y78318D01*
X280877Y78073D01*
X280969Y77843D01*
X281077Y77628D01*
X281201Y77428D01*
X281342Y77243D01*
X281500Y77072D01*
X277300D01*
X277458Y77243D01*
X277599Y77428D01*
X277723Y77628D01*
X277831Y77843D01*
X277922Y78073D01*
X277997Y78318D01*
X278055Y78578D01*
X278097Y78853D01*
X278122Y79143D01*
X278130Y79448D01*
X280670D01*
X280678Y79143D01*
D02*
G37*
G36*
X281342Y72617D02*
X281201Y72432D01*
X281077Y72232D01*
X280969Y72017D01*
X280877Y71787D01*
X280803Y71542D01*
X280745Y71282D01*
X280703Y71007D01*
X280678Y70717D01*
X280670Y70412D01*
X278130D01*
X278122Y70717D01*
X278097Y71007D01*
X278055Y71282D01*
X277997Y71542D01*
X277922Y71787D01*
X277831Y72017D01*
X277723Y72232D01*
X277599Y72432D01*
X277458Y72617D01*
X277300Y72788D01*
X281500D01*
X281342Y72617D01*
D02*
G37*
G36*
X271788Y70253D02*
X271813Y69963D01*
X271855Y69688D01*
X271913Y69428D01*
X271987Y69183D01*
X272079Y68953D01*
X272187Y68738D01*
X272311Y68538D01*
X272452Y68353D01*
X272610Y68182D01*
X268410D01*
X268568Y68353D01*
X268709Y68538D01*
X268833Y68738D01*
X268941Y68953D01*
X269032Y69183D01*
X269107Y69428D01*
X269165Y69688D01*
X269207Y69963D01*
X269232Y70253D01*
X269240Y70558D01*
X271780D01*
X271788Y70253D01*
D02*
G37*
G36*
X319168Y65210D02*
X318997Y65368D01*
X318812Y65509D01*
X318612Y65633D01*
X318397Y65741D01*
X318167Y65833D01*
X317922Y65907D01*
X317662Y65965D01*
X317387Y66007D01*
X317097Y66032D01*
X316792Y66040D01*
Y68580D01*
X317097Y68588D01*
X317387Y68613D01*
X317662Y68655D01*
X317922Y68713D01*
X318167Y68787D01*
X318397Y68879D01*
X318612Y68987D01*
X318812Y69111D01*
X318997Y69252D01*
X319168Y69410D01*
Y65210D01*
D02*
G37*
G36*
X142879Y63183D02*
X142504Y62790D01*
X142188Y62420D01*
X141930Y62073D01*
X141730Y61748D01*
X141588Y61446D01*
X141504Y61166D01*
X141479Y60909D01*
X141512Y60674D01*
X141603Y60462D01*
X141752Y60272D01*
X138173Y63852D01*
X138362Y63703D01*
X138574Y63612D01*
X138809Y63579D01*
X139066Y63604D01*
X139346Y63688D01*
X139648Y63830D01*
X139973Y64030D01*
X140320Y64288D01*
X140690Y64604D01*
X141083Y64979D01*
X142879Y63183D01*
D02*
G37*
G36*
X270480Y63040D02*
X270248Y63031D01*
X270017Y63000D01*
X269788Y62947D01*
X269559Y62871D01*
X269332Y62773D01*
X269106Y62652D01*
X268881Y62510D01*
X268657Y62344D01*
X268435Y62157D01*
X268213Y61947D01*
X266417Y63743D01*
X266627Y63965D01*
X266814Y64187D01*
X266980Y64411D01*
X267122Y64636D01*
X267243Y64862D01*
X267341Y65090D01*
X267417Y65318D01*
X267470Y65547D01*
X267501Y65778D01*
X267510Y66010D01*
X270480Y63040D01*
D02*
G37*
G36*
X125363Y53349D02*
X125331Y53589D01*
X125242Y53803D01*
X125096Y53992D01*
X124894Y54156D01*
X124634Y54295D01*
X124318Y54408D01*
X123945Y54496D01*
X123515Y54560D01*
X123028Y54597D01*
X122484Y54610D01*
X122460Y57150D01*
X123001Y57163D01*
X123485Y57200D01*
X123911Y57263D01*
X124280Y57352D01*
X124592Y57465D01*
X124846Y57604D01*
X125043Y57768D01*
X125183Y57957D01*
X125265Y58172D01*
X125290Y58411D01*
X125363Y53349D01*
D02*
G37*
G36*
X292100Y54610D02*
X288290Y50800D01*
Y58420D01*
X292100Y54610D01*
D02*
G37*
G36*
X415160Y41780D02*
X411350Y45590D01*
X415160Y49400D01*
Y41780D01*
D02*
G37*
G36*
X142879Y37783D02*
X142504Y37390D01*
X142188Y37020D01*
X141930Y36673D01*
X141730Y36348D01*
X141588Y36046D01*
X141504Y35766D01*
X141479Y35509D01*
X141512Y35274D01*
X141603Y35062D01*
X141752Y34873D01*
X138173Y38452D01*
X138362Y38303D01*
X138574Y38212D01*
X138809Y38179D01*
X139066Y38204D01*
X139346Y38288D01*
X139648Y38430D01*
X139973Y38630D01*
X140320Y38888D01*
X140690Y39204D01*
X141083Y39579D01*
X142879Y37783D01*
D02*
G37*
G36*
X125327Y28069D02*
X125298Y28308D01*
X125212Y28523D01*
X125070Y28712D01*
X124870Y28876D01*
X124613Y29015D01*
X124299Y29128D01*
X123928Y29216D01*
X123500Y29279D01*
X123014Y29317D01*
X122472Y29330D01*
Y31870D01*
X123014Y31883D01*
X123500Y31920D01*
X123928Y31983D01*
X124299Y32072D01*
X124613Y32185D01*
X124870Y32324D01*
X125070Y32488D01*
X125212Y32677D01*
X125298Y32891D01*
X125327Y33131D01*
Y28069D01*
D02*
G37*
G36*
X288290Y25400D02*
X284480Y29210D01*
X288290Y33020D01*
Y25400D01*
D02*
G37*
G36*
X19592Y81377D02*
X19451Y81192D01*
X19327Y80992D01*
X19219Y80777D01*
X19128Y80547D01*
X19053Y80302D01*
X18995Y80042D01*
X18953Y79767D01*
X18928Y79477D01*
X18920Y79172D01*
X16380D01*
X16372Y79477D01*
X16347Y79767D01*
X16305Y80042D01*
X16247Y80302D01*
X16172Y80547D01*
X16081Y80777D01*
X15973Y80992D01*
X15849Y81192D01*
X15708Y81377D01*
X15550Y81548D01*
X19750D01*
X19592Y81377D01*
D02*
G37*
G36*
Y62327D02*
X19451Y62142D01*
X19327Y61942D01*
X19219Y61727D01*
X19128Y61497D01*
X19053Y61252D01*
X18995Y60992D01*
X18953Y60717D01*
X18928Y60427D01*
X18920Y60122D01*
X16380D01*
X16372Y60427D01*
X16347Y60717D01*
X16305Y60992D01*
X16247Y61252D01*
X16172Y61497D01*
X16081Y61727D01*
X15973Y61942D01*
X15849Y62142D01*
X15708Y62327D01*
X15550Y62498D01*
X19750D01*
X19592Y62327D01*
D02*
G37*
D11*
X361820Y152270D02*
X415290D01*
X346580D02*
X361820D01*
X140970Y173990D02*
X201930D01*
X125730Y128270D02*
Y158750D01*
X140970Y173990D01*
X201930D02*
X207010Y179070D01*
X60960Y192405D02*
X65865Y187500D01*
X77470D01*
X60960Y192405D02*
X66055Y197500D01*
X77470D01*
X89155Y182500D02*
X93980Y187325D01*
X77470Y182500D02*
X89155D01*
X88805Y192500D02*
X93980Y187325D01*
X77470Y192500D02*
X88805D01*
X229870Y166370D02*
X244554D01*
X229870Y153670D02*
X244554D01*
X342900Y106680D02*
X350520Y99060D01*
X407670D01*
X342900Y106680D02*
Y134620D01*
X415160Y45590D02*
Y91570D01*
X407670Y99060D02*
X415160Y91570D01*
X336550Y27940D02*
X407670D01*
X415160Y35430D02*
Y45590D01*
X407670Y27940D02*
X415160Y35430D01*
X304086Y29210D02*
X324554D01*
X339433Y44089D02*
X340809D01*
X324554Y29210D02*
X339433Y44089D01*
X392430Y45590D02*
X415160D01*
X390929Y44089D02*
X392430Y45590D01*
X365311Y44089D02*
Y62591D01*
X392430Y61090D02*
X405000D01*
X365311Y44089D02*
X390929D01*
X392430Y61090D02*
Y73660D01*
X340809Y62591D02*
Y74109D01*
X387350Y78740D02*
X392430Y73660D01*
X340809Y74109D02*
X345440Y78740D01*
X387350D01*
X332740Y24130D02*
X336550Y27940D01*
X332740Y16510D02*
Y24130D01*
X374730Y178990D02*
X377320Y176400D01*
X374730Y178990D02*
Y195580D01*
X377320Y167640D02*
Y176400D01*
X325120Y80010D02*
X331470Y86360D01*
X304086Y80010D02*
X325120D01*
X304086Y16510D02*
X332740D01*
X348110D02*
X359150D01*
X359280Y16640D01*
X304086Y67310D02*
X321310D01*
X17650Y36830D02*
Y45590D01*
X146480Y43180D02*
X220980D01*
X146480Y68580D02*
X217170D01*
X151560Y99060D02*
X222250D01*
X217170Y68580D02*
X228600Y80010D01*
X224790Y46990D02*
Y63500D01*
X207010Y179070D02*
Y194310D01*
X279400Y223520D02*
X282070Y226190D01*
Y234950D01*
X274320Y223520D02*
X279400D01*
X91310Y93850D02*
X125730Y128270D01*
X91310Y74930D02*
Y93850D01*
X17650Y74930D02*
Y83690D01*
Y55880D02*
Y64640D01*
X91310Y55880D02*
Y74930D01*
Y36830D02*
Y55880D01*
X174310Y158750D02*
X199302D01*
X212911Y145141D01*
X217082Y140970D01*
X163960Y148400D02*
X174310Y158750D01*
X148460Y123190D02*
Y135760D01*
X148590Y135890D01*
X148460Y136020D02*
X148590Y135890D01*
X148460Y136020D02*
Y148590D01*
X377320Y158880D02*
Y167640D01*
X349250Y215900D02*
X370840D01*
X344730Y211380D02*
X349250Y215900D01*
X370840D02*
X374730Y212010D01*
X344730Y195580D02*
Y211380D01*
X374730Y195580D02*
Y212010D01*
X361820Y152400D02*
Y167640D01*
X342900Y148590D02*
X346580Y152270D01*
X342900Y134620D02*
Y148590D01*
X414730Y168330D02*
X415290Y167770D01*
X414730Y168330D02*
Y195580D01*
X363090Y167640D02*
X364730Y169280D01*
Y195580D01*
X394730Y214390D02*
X394970Y214630D01*
X384730Y195580D02*
Y214390D01*
X384970Y214630D01*
X394730Y195580D02*
Y214390D01*
X259080Y191770D02*
X270510Y180340D01*
X259080Y204470D02*
X279400Y184150D01*
Y74930D02*
Y184150D01*
Y62230D02*
Y74930D01*
X270510Y66040D02*
Y180340D01*
X289402Y217170D02*
X304086D01*
X244554Y191770D02*
X259080D01*
X244554Y179070D02*
X259238D01*
X282070Y234950D02*
X298450D01*
X304086Y217170D02*
Y229314D01*
X298450Y234950D02*
X304086Y229314D01*
X67440Y36830D02*
X91310D01*
X67440Y55880D02*
X91310D01*
X67440Y74930D02*
X91310D01*
X220980Y43180D02*
X224790Y46990D01*
X288290Y29210D02*
Y54610D01*
Y19050D02*
Y29210D01*
X244554D02*
X288290D01*
Y54610D02*
Y90170D01*
Y54610D02*
X304086D01*
X290830Y16510D02*
X304086D01*
X288290Y19050D02*
X290830Y16510D01*
X288290Y90170D02*
X290830Y92710D01*
X304086D01*
X259080Y41910D02*
X279400Y62230D01*
X259080Y54610D02*
X270510Y66040D01*
X244554Y204470D02*
X259080D01*
X244554Y41910D02*
X259080D01*
X244554Y54610D02*
X259080D01*
X55180Y202500D02*
X77470D01*
X40640Y187960D02*
X55180Y202500D01*
X40640Y125860D02*
Y187960D01*
X53340Y163830D02*
X62010Y172500D01*
X53340Y125860D02*
Y163830D01*
X62010Y172500D02*
X77470D01*
X33150Y36830D02*
X51940D01*
X33150Y55880D02*
X51940D01*
X33150Y74930D02*
X51940D01*
X115570Y36830D02*
X121800Y30600D01*
X106810Y36830D02*
X115570D01*
X121800Y30600D02*
X133900D01*
X106810Y74930D02*
X115570D01*
X122040Y81400D02*
X133900D01*
X115570Y74930D02*
X122040Y81400D01*
X133780Y55880D02*
X133900Y56000D01*
X106810Y55880D02*
X133780D01*
X224790Y63500D02*
X228600Y67310D01*
X244554D01*
X133900Y30600D02*
X146480Y43180D01*
X228600Y80010D02*
X244554D01*
X133900Y56000D02*
X146480Y68580D01*
X228600Y92710D02*
X244554D01*
X222250Y99060D02*
X228600Y92710D01*
X133900Y81400D02*
X151560Y99060D01*
X202018Y113030D02*
X238760D01*
X188409Y126639D02*
X202018Y113030D01*
X217082Y140970D02*
X244554D01*
X184960Y123190D02*
X188409Y126639D01*
X163960Y123190D02*
X184960D01*
X238760Y113030D02*
X244554Y118824D01*
Y128270D01*
D14*
X348110Y16510D02*
D03*
X332610D02*
D03*
X282070Y234950D02*
D03*
X266570D02*
D03*
X377320Y167640D02*
D03*
X361820D02*
D03*
X17650Y74930D02*
D03*
X33150D02*
D03*
X67440D02*
D03*
X51940D02*
D03*
X67440Y55880D02*
D03*
X51940D02*
D03*
X17650D02*
D03*
X33150D02*
D03*
X17650Y36830D02*
D03*
X33150D02*
D03*
X67440D02*
D03*
X51940D02*
D03*
X106810Y74930D02*
D03*
X91310D02*
D03*
Y55880D02*
D03*
X106810D02*
D03*
X91310Y36830D02*
D03*
X106810D02*
D03*
X163960Y148590D02*
D03*
X148460D02*
D03*
Y123190D02*
D03*
X163960D02*
D03*
D15*
X342900Y134620D02*
D03*
X370840D02*
D03*
D16*
X365311Y44089D02*
D03*
X212911Y126639D02*
D03*
D17*
X340809Y44089D02*
D03*
Y62591D02*
D03*
X365311D02*
D03*
X188409Y126639D02*
D03*
Y145141D02*
D03*
X212911D02*
D03*
D18*
X392430Y45590D02*
D03*
Y61090D02*
D03*
X415290Y152270D02*
D03*
Y167770D02*
D03*
X55880Y110360D02*
D03*
Y125860D02*
D03*
X38100D02*
D03*
Y110360D02*
D03*
D19*
X244554Y92710D02*
D03*
Y29210D02*
D03*
Y16510D02*
D03*
X304086Y92710D02*
D03*
Y29210D02*
D03*
Y16510D02*
D03*
X244554Y80010D02*
D03*
Y67310D02*
D03*
Y54610D02*
D03*
Y41910D02*
D03*
X304086Y80010D02*
D03*
Y67310D02*
D03*
Y54610D02*
D03*
Y41910D02*
D03*
Y128270D02*
D03*
Y140970D02*
D03*
Y204470D02*
D03*
Y217170D02*
D03*
X244554Y128270D02*
D03*
Y140970D02*
D03*
Y204470D02*
D03*
Y217170D02*
D03*
X304086Y153670D02*
D03*
Y166370D02*
D03*
Y179070D02*
D03*
Y191770D02*
D03*
X244554Y153670D02*
D03*
Y166370D02*
D03*
Y179070D02*
D03*
Y191770D02*
D03*
D20*
X414730Y195580D02*
D03*
X404730D02*
D03*
X394730D02*
D03*
X384730D02*
D03*
X374730D02*
D03*
X364730D02*
D03*
X354730D02*
D03*
X344730D02*
D03*
D21*
X148830Y228727D02*
D03*
X178830D02*
D03*
D22*
X163830D02*
D03*
D23*
X207010Y194310D02*
D03*
Y222250D02*
D03*
X120650Y194310D02*
D03*
Y222250D02*
D03*
D24*
X77470Y222500D02*
D03*
Y214500D02*
D03*
Y165500D02*
D03*
Y157500D02*
D03*
D25*
Y207500D02*
D03*
Y202500D02*
D03*
Y197500D02*
D03*
Y192500D02*
D03*
Y187500D02*
D03*
Y182500D02*
D03*
Y177500D02*
D03*
Y172500D02*
D03*
D42*
X137160Y240030D02*
X139700Y242570D01*
X176530D02*
X178830Y240270D01*
X139700Y242570D02*
X176530D01*
X82550Y102870D02*
Y124460D01*
X96520Y138430D01*
Y153670D01*
X8890Y104140D02*
X17780Y95250D01*
X74930D01*
X8890Y104140D02*
Y233680D01*
X17780Y242570D01*
X114300D01*
X120650Y236220D01*
Y222250D02*
Y236220D01*
X74930Y95250D02*
X82550Y102870D01*
X92690Y157500D02*
X96520Y153670D01*
X77470Y157500D02*
X92690D01*
X178830Y228727D02*
X178957Y228600D01*
X187960D01*
X194310Y222250D01*
X207010D01*
X178830Y228727D02*
Y240270D01*
X137160Y226060D02*
Y240030D01*
X133350Y222250D02*
X137160Y226060D01*
X120650Y222250D02*
X133350D01*
X77470Y222500D02*
X120400D01*
X163830Y194310D02*
Y228727D01*
Y194310D02*
X207010D01*
X148830Y217410D02*
Y228727D01*
X125730Y194310D02*
X148830Y217410D01*
X120650Y194310D02*
X125730D01*
X115570D02*
X120650D01*
X95380Y214500D02*
X115570Y194310D01*
X77470Y214500D02*
X95380D01*
X120650Y179070D02*
Y194310D01*
X107080Y165500D02*
X120650Y179070D01*
X77470Y165500D02*
X107080D01*
D43*
X210100Y30600D02*
D03*
Y56000D02*
D03*
Y81400D02*
D03*
X133900Y56000D02*
D03*
Y81400D02*
D03*
Y30600D02*
D03*
D44*
X68860Y146800D02*
D03*
X68860Y233200D02*
D03*
D45*
X27360Y233200D02*
D03*
Y146800D02*
D03*
D46*
X181610Y185420D02*
D03*
X147320Y201930D02*
D03*
X102870Y187960D02*
D03*
X92710Y203200D02*
D03*
X93980Y187325D02*
D03*
X229870Y166370D02*
D03*
Y153670D02*
D03*
X60960Y192405D02*
D03*
X341630Y78740D02*
D03*
X321310Y40640D02*
D03*
X405130Y54610D02*
D03*
Y38100D02*
D03*
X405000Y61090D02*
D03*
X359410Y10160D02*
D03*
X52070Y180340D02*
D03*
X331470Y86360D02*
D03*
X359280Y16640D02*
D03*
X321310Y67310D02*
D03*
X17650Y45590D02*
D03*
X269240Y16510D02*
D03*
X262890D02*
D03*
X344170Y177800D02*
D03*
X274320Y223520D02*
D03*
X17650Y83690D02*
D03*
Y64640D02*
D03*
X401320Y134620D02*
D03*
Y128270D02*
D03*
Y140970D02*
D03*
X210820Y236220D02*
D03*
X203200D02*
D03*
X207010Y241300D02*
D03*
X148590Y135890D02*
D03*
X377320Y158880D02*
D03*
X220980Y196850D02*
D03*
Y190500D02*
D03*
X328930Y132080D02*
D03*
Y138430D02*
D03*
X394970Y214630D02*
D03*
X384970D02*
D03*
X289402Y217170D02*
D03*
X259238Y179070D02*
D03*
X279400Y74930D02*
D03*
X270510Y66040D02*
D03*
M02*
