G04*
G04 #@! TF.GenerationSoftware,Altium Limited,Altium Designer,22.6.1 (34)*
G04*
G04 Layer_Color=255*
%FSLAX44Y44*%
%MOMM*%
G71*
G04*
G04 #@! TF.SameCoordinates,64BB26C1-36A9-42FA-8A83-9A0FAFC5C5BC*
G04*
G04*
G04 #@! TF.FilePolarity,Positive*
G04*
G01*
G75*
%ADD14R,0.8500X0.8500*%
%ADD15R,1.9050X1.7145*%
%ADD16R,1.6500X1.4000*%
%ADD17R,1.6500X1.4000*%
%ADD18R,0.8500X0.8500*%
%ADD19O,2.0828X0.7000*%
%ADD20R,0.7000X2.2540*%
%ADD21R,0.5842X1.4986*%
%ADD22R,0.6604X1.4986*%
%ADD23R,1.7145X1.9050*%
%ADD24R,1.5360X0.6000*%
%ADD25R,1.5360X0.3000*%
%ADD43O,1.8000X1.8000*%
%ADD44O,2.1000X1.0000*%
%ADD45O,1.6000X1.0000*%
D14*
X348110Y16510D02*
D03*
X332610D02*
D03*
X282070Y234950D02*
D03*
X266570D02*
D03*
X377320Y167640D02*
D03*
X361820D02*
D03*
X17650Y74930D02*
D03*
X33150D02*
D03*
X67440D02*
D03*
X51940D02*
D03*
X67440Y55880D02*
D03*
X51940D02*
D03*
X17650D02*
D03*
X33150D02*
D03*
X17650Y36830D02*
D03*
X33150D02*
D03*
X67440D02*
D03*
X51940D02*
D03*
X106810Y74930D02*
D03*
X91310D02*
D03*
Y55880D02*
D03*
X106810D02*
D03*
X91310Y36830D02*
D03*
X106810D02*
D03*
X163960Y148590D02*
D03*
X148460D02*
D03*
Y123190D02*
D03*
X163960D02*
D03*
D15*
X342900Y134620D02*
D03*
X370840D02*
D03*
D16*
X365311Y44089D02*
D03*
X212911Y126639D02*
D03*
D17*
X340809Y44089D02*
D03*
Y62591D02*
D03*
X365311D02*
D03*
X188409Y126639D02*
D03*
Y145141D02*
D03*
X212911D02*
D03*
D18*
X392430Y45590D02*
D03*
Y61090D02*
D03*
X415290Y152270D02*
D03*
Y167770D02*
D03*
X55880Y110360D02*
D03*
Y125860D02*
D03*
X38100D02*
D03*
Y110360D02*
D03*
D19*
X244554Y92710D02*
D03*
Y29210D02*
D03*
Y16510D02*
D03*
X304086Y92710D02*
D03*
Y29210D02*
D03*
Y16510D02*
D03*
X244554Y80010D02*
D03*
Y67310D02*
D03*
Y54610D02*
D03*
Y41910D02*
D03*
X304086Y80010D02*
D03*
Y67310D02*
D03*
Y54610D02*
D03*
Y41910D02*
D03*
Y128270D02*
D03*
Y140970D02*
D03*
Y204470D02*
D03*
Y217170D02*
D03*
X244554Y128270D02*
D03*
Y140970D02*
D03*
Y204470D02*
D03*
Y217170D02*
D03*
X304086Y153670D02*
D03*
Y166370D02*
D03*
Y179070D02*
D03*
Y191770D02*
D03*
X244554Y153670D02*
D03*
Y166370D02*
D03*
Y179070D02*
D03*
Y191770D02*
D03*
D20*
X414730Y195580D02*
D03*
X404730D02*
D03*
X394730D02*
D03*
X384730D02*
D03*
X374730D02*
D03*
X364730D02*
D03*
X354730D02*
D03*
X344730D02*
D03*
D21*
X148830Y228727D02*
D03*
X178830D02*
D03*
D22*
X163830D02*
D03*
D23*
X207010Y194310D02*
D03*
Y222250D02*
D03*
X120650Y194310D02*
D03*
Y222250D02*
D03*
D24*
X77470Y222500D02*
D03*
Y214500D02*
D03*
Y165500D02*
D03*
Y157500D02*
D03*
D25*
Y207500D02*
D03*
Y202500D02*
D03*
Y197500D02*
D03*
Y192500D02*
D03*
Y187500D02*
D03*
Y182500D02*
D03*
Y177500D02*
D03*
Y172500D02*
D03*
D43*
X210100Y30600D02*
D03*
Y56000D02*
D03*
Y81400D02*
D03*
X133900Y56000D02*
D03*
Y81400D02*
D03*
Y30600D02*
D03*
D44*
X68860Y146800D02*
D03*
X68860Y233200D02*
D03*
D45*
X27360Y233200D02*
D03*
Y146800D02*
D03*
M02*
