G04*
G04 #@! TF.GenerationSoftware,Altium Limited,Altium Designer,22.6.1 (34)*
G04*
G04 Layer_Physical_Order=2*
G04 Layer_Color=15238730*
%FSLAX44Y44*%
%MOMM*%
G71*
G04*
G04 #@! TF.SameCoordinates,64BB26C1-36A9-42FA-8A83-9A0FAFC5C5BC*
G04*
G04*
G04 #@! TF.FilePolarity,Positive*
G04*
G01*
G75*
%ADD11C,0.2540*%
%ADD42C,0.5080*%
%ADD43O,1.8000X1.8000*%
%ADD44O,2.1000X1.0000*%
%ADD45O,1.6000X1.0000*%
%ADD46C,0.6000*%
G36*
X442366Y245711D02*
X444371Y244371D01*
X445711Y242366D01*
X446149Y240167D01*
X446115Y240000D01*
Y12032D01*
X446115Y12025D01*
X446115Y10000D01*
X445803Y8097D01*
X445711Y7634D01*
X444371Y5629D01*
X442365Y4289D01*
X440167Y3851D01*
X440000Y3885D01*
X12032Y3885D01*
X11987Y3885D01*
X10000Y3885D01*
X8097Y4197D01*
X7634Y4289D01*
X5629Y5629D01*
X4289Y7634D01*
X3851Y9833D01*
X3885Y10000D01*
Y240000D01*
X3851Y240167D01*
X4289Y242366D01*
X5629Y244371D01*
X7634Y245711D01*
X9833Y246149D01*
X10000Y246115D01*
X440000D01*
X440167Y246149D01*
X442366Y245711D01*
D02*
G37*
%LPC*%
G36*
X30360Y240805D02*
X28630D01*
Y234470D01*
X37798D01*
X37706Y235168D01*
X36946Y237003D01*
X35738Y238578D01*
X34162Y239786D01*
X32328Y240546D01*
X30360Y240805D01*
D02*
G37*
G36*
X74360Y240805D02*
X70130D01*
Y234470D01*
X81798D01*
X81706Y235168D01*
X80946Y237003D01*
X79738Y238578D01*
X78163Y239786D01*
X76329Y240546D01*
X74360Y240805D01*
D02*
G37*
G36*
X26090Y240805D02*
X24360D01*
X22392Y240546D01*
X20557Y239786D01*
X18982Y238578D01*
X17774Y237003D01*
X17014Y235168D01*
X16922Y234470D01*
X26090D01*
Y240805D01*
D02*
G37*
G36*
X67590Y240805D02*
X63360D01*
X61392Y240546D01*
X59558Y239786D01*
X57983Y238578D01*
X56774Y237003D01*
X56014Y235168D01*
X55922Y234470D01*
X67590D01*
Y240805D01*
D02*
G37*
G36*
X37798Y231930D02*
X28630D01*
Y225595D01*
X30360D01*
X32328Y225854D01*
X34162Y226614D01*
X35738Y227822D01*
X36946Y229398D01*
X37706Y231232D01*
X37798Y231930D01*
D02*
G37*
G36*
X26090D02*
X16922D01*
X17014Y231232D01*
X17774Y229398D01*
X18982Y227822D01*
X20557Y226614D01*
X22392Y225854D01*
X24360Y225595D01*
X26090D01*
Y231930D01*
D02*
G37*
G36*
X81798D02*
X70130D01*
Y225595D01*
X74360D01*
X76329Y225854D01*
X78163Y226614D01*
X79738Y227822D01*
X80946Y229398D01*
X81706Y231232D01*
X81798Y231930D01*
D02*
G37*
G36*
X395971Y219662D02*
X393969D01*
X392120Y218896D01*
X391221Y217997D01*
X389970Y217672D01*
X388719Y217997D01*
X387820Y218896D01*
X385971Y219662D01*
X383969D01*
X382120Y218896D01*
X380704Y217480D01*
X379938Y215631D01*
Y213629D01*
X380704Y211780D01*
X381264Y211219D01*
X381350Y211079D01*
X381440Y210982D01*
X381461Y210955D01*
X381484Y210918D01*
X381509Y210869D01*
X381535Y210802D01*
X381562Y210713D01*
X381587Y210601D01*
X381603Y210497D01*
Y155225D01*
X318929Y92551D01*
X318200Y91458D01*
X317943Y90170D01*
Y71444D01*
X317928Y71339D01*
X317903Y71227D01*
X317875Y71138D01*
X317849Y71071D01*
X317824Y71022D01*
X317801Y70985D01*
X317780Y70958D01*
X317690Y70861D01*
X317604Y70721D01*
X317044Y70160D01*
X316278Y68311D01*
Y66309D01*
X317044Y64460D01*
X318460Y63044D01*
X320309Y62278D01*
X322311D01*
X324160Y63044D01*
X325576Y64460D01*
X326342Y66309D01*
Y68311D01*
X325576Y70160D01*
X325016Y70721D01*
X324930Y70861D01*
X324840Y70958D01*
X324819Y70985D01*
X324796Y71022D01*
X324771Y71071D01*
X324744Y71138D01*
X324717Y71227D01*
X324692Y71339D01*
X324677Y71444D01*
Y84301D01*
X326709Y84706D01*
X327204Y83510D01*
X328620Y82094D01*
X330469Y81328D01*
X332471D01*
X334320Y82094D01*
X335736Y83510D01*
X336502Y85359D01*
Y86151D01*
X336540Y86311D01*
X336545Y86443D01*
X336550Y86478D01*
X336559Y86519D01*
X336577Y86572D01*
X336606Y86638D01*
X336649Y86720D01*
X336711Y86817D01*
X336773Y86902D01*
X397351Y147479D01*
X398080Y148572D01*
X398337Y149860D01*
Y210497D01*
X398352Y210601D01*
X398377Y210713D01*
X398405Y210802D01*
X398431Y210869D01*
X398456Y210918D01*
X398479Y210955D01*
X398500Y210982D01*
X398590Y211080D01*
X398676Y211219D01*
X399236Y211780D01*
X400002Y213629D01*
Y215631D01*
X399236Y217480D01*
X397820Y218896D01*
X395971Y219662D01*
D02*
G37*
G36*
X67590Y231930D02*
X55922D01*
X56014Y231232D01*
X56774Y229398D01*
X57983Y227822D01*
X59558Y226614D01*
X61392Y225854D01*
X61509Y225839D01*
X61784Y223753D01*
X60870Y223375D01*
X59385Y221890D01*
X58582Y219950D01*
Y217850D01*
X59385Y215910D01*
X60870Y214426D01*
X62810Y213622D01*
X64910D01*
X66850Y214426D01*
X68334Y215910D01*
X69138Y217850D01*
Y219950D01*
X68334Y221890D01*
X66850Y223375D01*
X66395Y223563D01*
X66799Y225595D01*
X67590D01*
Y231930D01*
D02*
G37*
G36*
X290403Y222202D02*
X288401D01*
X286552Y221436D01*
X285136Y220020D01*
X284370Y218171D01*
Y216169D01*
X285136Y214320D01*
X285696Y213759D01*
X285782Y213619D01*
X285872Y213522D01*
X285893Y213495D01*
X285916Y213458D01*
X285941Y213409D01*
X285968Y213342D01*
X285994Y213253D01*
X286019Y213141D01*
X286035Y213036D01*
Y210629D01*
X259780Y184373D01*
X259695Y184311D01*
X259598Y184249D01*
X259517Y184206D01*
X259450Y184177D01*
X259397Y184160D01*
X259356Y184150D01*
X259321Y184145D01*
X259189Y184140D01*
X259029Y184102D01*
X258237D01*
X256388Y183336D01*
X254972Y181920D01*
X254206Y180071D01*
Y178069D01*
X254972Y176220D01*
X256388Y174804D01*
X258237Y174038D01*
X260239D01*
X262088Y174804D01*
X263504Y176220D01*
X264270Y178069D01*
Y178861D01*
X264308Y179021D01*
X264313Y179153D01*
X264318Y179188D01*
X264328Y179230D01*
X264345Y179282D01*
X264374Y179349D01*
X264417Y179430D01*
X264479Y179527D01*
X264541Y179612D01*
X291783Y206853D01*
X292512Y207946D01*
X292769Y209234D01*
Y213036D01*
X292785Y213141D01*
X292810Y213253D01*
X292836Y213342D01*
X292863Y213409D01*
X292888Y213458D01*
X292911Y213495D01*
X292932Y213522D01*
X293022Y213619D01*
X293108Y213759D01*
X293668Y214320D01*
X294434Y216169D01*
Y218171D01*
X293668Y220020D01*
X292252Y221436D01*
X290403Y222202D01*
D02*
G37*
G36*
X61961Y197437D02*
X59959D01*
X58110Y196671D01*
X56694Y195255D01*
X55928Y193406D01*
Y191404D01*
X56694Y189555D01*
X58110Y188139D01*
X59959Y187373D01*
X60296D01*
X60308Y187371D01*
X60372Y187353D01*
X60447Y187327D01*
X60533Y187289D01*
X60631Y187238D01*
X60742Y187170D01*
X60841Y187101D01*
X60993Y186975D01*
X71279Y176689D01*
X72372Y175960D01*
X73660Y175703D01*
X93855D01*
X105569Y163989D01*
X106662Y163260D01*
X107950Y163003D01*
X215776D01*
X224566Y154212D01*
X224629Y154127D01*
X224691Y154030D01*
X224734Y153949D01*
X224763Y153882D01*
X224781Y153829D01*
X224790Y153788D01*
X224795Y153753D01*
X224800Y153621D01*
X224838Y153461D01*
Y152669D01*
X225604Y150820D01*
X227020Y149404D01*
X228869Y148638D01*
X230871D01*
X232720Y149404D01*
X234136Y150820D01*
X234902Y152669D01*
Y154671D01*
X234136Y156520D01*
X232720Y157936D01*
X230871Y158702D01*
X230402Y159306D01*
X230580Y160077D01*
X231269Y161503D01*
X232720Y162104D01*
X234136Y163520D01*
X234902Y165369D01*
Y167371D01*
X234136Y169220D01*
X232720Y170636D01*
X230871Y171402D01*
X230079D01*
X229919Y171440D01*
X229787Y171445D01*
X229752Y171450D01*
X229711Y171460D01*
X229658Y171477D01*
X229592Y171506D01*
X229510Y171549D01*
X229413Y171611D01*
X229328Y171674D01*
X227679Y173323D01*
X226586Y174052D01*
X225298Y174309D01*
X201487D01*
Y176692D01*
X201532D01*
X201098Y178872D01*
X199863Y180720D01*
X198015Y181955D01*
X195834Y182389D01*
X193654Y181955D01*
X192744Y181347D01*
X191262Y180889D01*
X189781Y181347D01*
X188871Y181955D01*
X186690Y182389D01*
X184510Y181955D01*
X182661Y180720D01*
X181575D01*
X179727Y181955D01*
X177546Y182389D01*
X175366Y181955D01*
X173517Y180720D01*
X172282Y178872D01*
X171849Y176692D01*
X171893D01*
Y174309D01*
X111757D01*
X99284Y186783D01*
X99221Y186868D01*
X99159Y186965D01*
X99116Y187046D01*
X99087Y187113D01*
X99069Y187166D01*
X99060Y187207D01*
X99055Y187242D01*
X99050Y187374D01*
X99012Y187534D01*
Y188326D01*
X98246Y190175D01*
X96830Y191591D01*
X94981Y192357D01*
X92979D01*
X91130Y191591D01*
X89714Y190175D01*
X88948Y188326D01*
Y186324D01*
X89714Y184475D01*
X89720Y184469D01*
X88878Y182437D01*
X75054D01*
X66092Y191399D01*
X66043Y191468D01*
X66002Y191538D01*
X65992Y191560D01*
Y193406D01*
X65226Y195255D01*
X63810Y196671D01*
X61961Y197437D01*
D02*
G37*
G36*
X74360Y154405D02*
X70130D01*
Y148070D01*
X81798D01*
X81706Y148768D01*
X80946Y150603D01*
X79738Y152178D01*
X78163Y153386D01*
X76329Y154146D01*
X74360Y154405D01*
D02*
G37*
G36*
X64910Y166378D02*
X62810D01*
X60870Y165574D01*
X59385Y164090D01*
X58582Y162150D01*
Y160050D01*
X59385Y158110D01*
X60870Y156625D01*
X61784Y156247D01*
X61509Y154161D01*
X61392Y154146D01*
X59558Y153386D01*
X57983Y152178D01*
X56774Y150603D01*
X56014Y148768D01*
X55922Y148070D01*
X67590D01*
Y154405D01*
X66799D01*
X66395Y156437D01*
X66850Y156625D01*
X68334Y158110D01*
X69138Y160050D01*
Y162150D01*
X68334Y164090D01*
X66850Y165574D01*
X64910Y166378D01*
D02*
G37*
G36*
X30360Y154405D02*
X28630D01*
Y148070D01*
X37798D01*
X37706Y148768D01*
X36946Y150603D01*
X35738Y152177D01*
X34162Y153386D01*
X32328Y154146D01*
X30360Y154405D01*
D02*
G37*
G36*
X26090D02*
X24360D01*
X22392Y154146D01*
X20557Y153386D01*
X18982Y152177D01*
X17774Y150603D01*
X17014Y148768D01*
X16922Y148070D01*
X26090D01*
Y154405D01*
D02*
G37*
G36*
X81798Y145530D02*
X70130D01*
Y139195D01*
X74360D01*
X76329Y139454D01*
X78163Y140214D01*
X79738Y141422D01*
X80946Y142998D01*
X81706Y144832D01*
X81798Y145530D01*
D02*
G37*
G36*
X67590D02*
X55922D01*
X56014Y144832D01*
X56774Y142998D01*
X57983Y141422D01*
X59558Y140214D01*
X61392Y139454D01*
X63360Y139195D01*
X67590D01*
Y145530D01*
D02*
G37*
G36*
X37798Y145530D02*
X28630D01*
Y139195D01*
X30360D01*
X32328Y139454D01*
X34162Y140214D01*
X35738Y141422D01*
X36946Y142997D01*
X37706Y144832D01*
X37798Y145530D01*
D02*
G37*
G36*
X26090D02*
X16922D01*
X17014Y144832D01*
X17774Y142997D01*
X18982Y141422D01*
X20557Y140214D01*
X22392Y139454D01*
X24360Y139195D01*
X26090D01*
Y145530D01*
D02*
G37*
G36*
X316230Y239612D02*
X233680D01*
X231896Y239257D01*
X230384Y238246D01*
X217684Y225546D01*
X216673Y224034D01*
X216318Y222250D01*
Y198745D01*
X215948Y197851D01*
Y195849D01*
X216318Y194955D01*
Y192395D01*
X215948Y191501D01*
Y189499D01*
X216714Y187650D01*
X218130Y186234D01*
X219979Y185468D01*
X221981D01*
X223830Y186234D01*
X225246Y187650D01*
X226012Y189499D01*
Y191501D01*
X225642Y192395D01*
Y194955D01*
X226012Y195849D01*
Y197851D01*
X225642Y198745D01*
Y220319D01*
X235611Y230288D01*
X270337D01*
X270953Y229672D01*
Y227654D01*
X270938Y227549D01*
X270912Y227437D01*
X270886Y227348D01*
X270859Y227281D01*
X270834Y227232D01*
X270811Y227195D01*
X270790Y227168D01*
X270700Y227071D01*
X270614Y226931D01*
X270054Y226370D01*
X269288Y224521D01*
Y222519D01*
X270054Y220670D01*
X271470Y219254D01*
X273319Y218488D01*
X275321D01*
X277170Y219254D01*
X278586Y220670D01*
X279352Y222519D01*
Y224521D01*
X278586Y226370D01*
X278026Y226931D01*
X277940Y227071D01*
X277850Y227168D01*
X277829Y227195D01*
X277806Y227232D01*
X277781Y227281D01*
X277754Y227348D01*
X277728Y227437D01*
X277703Y227549D01*
X277687Y227654D01*
Y229672D01*
X278303Y230288D01*
X314299D01*
X324268Y220319D01*
Y140325D01*
X323898Y139431D01*
Y137429D01*
X324268Y136535D01*
Y133975D01*
X323898Y133081D01*
Y131079D01*
X324664Y129230D01*
X326080Y127814D01*
X327929Y127048D01*
X329931D01*
X331780Y127814D01*
X333196Y129230D01*
X333962Y131079D01*
Y133081D01*
X333592Y133975D01*
Y136535D01*
X333962Y137429D01*
Y139431D01*
X333592Y140325D01*
Y222250D01*
X333237Y224034D01*
X332226Y225546D01*
X319526Y238246D01*
X318014Y239257D01*
X317718Y239316D01*
X316230Y239612D01*
D02*
G37*
G36*
X211370Y92872D02*
Y82670D01*
X221572D01*
X221343Y84412D01*
X220180Y87220D01*
X218330Y89630D01*
X215920Y91480D01*
X213113Y92643D01*
X211370Y92872D01*
D02*
G37*
G36*
X208830D02*
X207087Y92643D01*
X204280Y91480D01*
X201870Y89630D01*
X200020Y87220D01*
X198857Y84412D01*
X198628Y82670D01*
X208830D01*
Y92872D01*
D02*
G37*
G36*
X133900Y92527D02*
X131020Y92148D01*
X128336Y91036D01*
X126032Y89268D01*
X124264Y86964D01*
X123152Y84280D01*
X122773Y81400D01*
X123152Y78520D01*
X124264Y75836D01*
X126032Y73532D01*
X128336Y71764D01*
X131020Y70652D01*
X133900Y70273D01*
X136780Y70652D01*
X139464Y71764D01*
X141768Y73532D01*
X143536Y75836D01*
X144648Y78520D01*
X145027Y81400D01*
X144648Y84280D01*
X143536Y86964D01*
X141768Y89268D01*
X139464Y91036D01*
X136780Y92148D01*
X133900Y92527D01*
D02*
G37*
G36*
X221572Y80130D02*
X211370D01*
Y69928D01*
X213113Y70157D01*
X215920Y71320D01*
X218330Y73170D01*
X220180Y75580D01*
X221343Y78387D01*
X221572Y80130D01*
D02*
G37*
G36*
X208830D02*
X198628D01*
X198857Y78387D01*
X200020Y75580D01*
X201870Y73170D01*
X204280Y71320D01*
X207087Y70157D01*
X208830Y69928D01*
Y80130D01*
D02*
G37*
G36*
X223520Y111317D02*
X41910D01*
X40622Y111060D01*
X39529Y110331D01*
X18192Y88994D01*
X18107Y88931D01*
X18010Y88869D01*
X17929Y88826D01*
X17862Y88797D01*
X17809Y88779D01*
X17768Y88770D01*
X17733Y88765D01*
X17601Y88760D01*
X17441Y88722D01*
X16649D01*
X14800Y87956D01*
X13384Y86540D01*
X12618Y84691D01*
Y82689D01*
X13384Y80840D01*
X14800Y79424D01*
X16649Y78658D01*
X18651D01*
X19167Y78872D01*
X20318Y77149D01*
X15269Y72101D01*
X14540Y71008D01*
X14283Y69720D01*
Y68773D01*
X14268Y68669D01*
X14243Y68557D01*
X14216Y68468D01*
X14189Y68401D01*
X14164Y68352D01*
X14141Y68315D01*
X14120Y68288D01*
X14030Y68190D01*
X13944Y68051D01*
X13384Y67490D01*
X12618Y65641D01*
Y63639D01*
X13384Y61790D01*
X14800Y60374D01*
X16649Y59608D01*
X18651D01*
X20500Y60374D01*
X21916Y61790D01*
X22682Y63639D01*
Y65641D01*
X21916Y67490D01*
X21356Y68051D01*
X21270Y68191D01*
X21180Y68288D01*
X21159Y68315D01*
X21136Y68352D01*
X21111Y68401D01*
X21106Y68415D01*
X48384Y95693D01*
X217045D01*
X249079Y63659D01*
X250172Y62930D01*
X251460Y62673D01*
X266376D01*
X266481Y62658D01*
X266593Y62632D01*
X266682Y62606D01*
X266749Y62579D01*
X266798Y62554D01*
X266835Y62531D01*
X266862Y62510D01*
X266959Y62420D01*
X267099Y62334D01*
X267660Y61774D01*
X269509Y61008D01*
X271511D01*
X273360Y61774D01*
X274776Y63190D01*
X275542Y65039D01*
Y67041D01*
X275050Y68229D01*
X275701Y70132D01*
X276003Y70537D01*
X276370Y70622D01*
X276766Y70574D01*
X278399Y69898D01*
X280401D01*
X282250Y70664D01*
X283666Y72080D01*
X284432Y73929D01*
Y75931D01*
X283666Y77780D01*
X282250Y79196D01*
X280401Y79962D01*
X278399D01*
X276550Y79196D01*
X275989Y78636D01*
X275849Y78550D01*
X275752Y78460D01*
X275725Y78439D01*
X275688Y78416D01*
X275639Y78391D01*
X275572Y78365D01*
X275483Y78337D01*
X275371Y78313D01*
X275266Y78297D01*
X257934D01*
X225901Y110331D01*
X224808Y111060D01*
X223520Y111317D01*
D02*
G37*
G36*
X211370Y67472D02*
Y57270D01*
X221572D01*
X221343Y59012D01*
X220180Y61820D01*
X218330Y64230D01*
X215920Y66080D01*
X213113Y67243D01*
X211370Y67472D01*
D02*
G37*
G36*
X208830D02*
X207087Y67243D01*
X204280Y66080D01*
X201870Y64230D01*
X200020Y61820D01*
X198857Y59012D01*
X198628Y57270D01*
X208830D01*
Y67472D01*
D02*
G37*
G36*
X133900Y67127D02*
X131020Y66748D01*
X128336Y65636D01*
X126032Y63868D01*
X124264Y61564D01*
X123152Y58880D01*
X122773Y56000D01*
X123152Y53120D01*
X124264Y50436D01*
X126032Y48132D01*
X128336Y46364D01*
X131020Y45252D01*
X133900Y44873D01*
X136780Y45252D01*
X139464Y46364D01*
X141768Y48132D01*
X143536Y50436D01*
X144648Y53120D01*
X145027Y56000D01*
X144648Y58880D01*
X143536Y61564D01*
X141768Y63868D01*
X139464Y65636D01*
X136780Y66748D01*
X133900Y67127D01*
D02*
G37*
G36*
X221572Y54730D02*
X211370D01*
Y44528D01*
X213113Y44757D01*
X215920Y45920D01*
X218330Y47770D01*
X220180Y50180D01*
X221343Y52987D01*
X221572Y54730D01*
D02*
G37*
G36*
X208830D02*
X198628D01*
X198857Y52987D01*
X200020Y50180D01*
X201870Y47770D01*
X204280Y45920D01*
X207087Y44757D01*
X208830Y44528D01*
Y54730D01*
D02*
G37*
G36*
X211370Y42072D02*
Y31870D01*
X221572D01*
X221343Y33612D01*
X220180Y36420D01*
X218330Y38830D01*
X215920Y40680D01*
X213113Y41843D01*
X211370Y42072D01*
D02*
G37*
G36*
X208830D02*
X207087Y41843D01*
X204280Y40680D01*
X201870Y38830D01*
X200020Y36420D01*
X198857Y33612D01*
X198628Y31870D01*
X208830D01*
Y42072D01*
D02*
G37*
G36*
X133900Y41727D02*
X131020Y41348D01*
X128336Y40236D01*
X126032Y38468D01*
X124264Y36164D01*
X123152Y33480D01*
X122773Y30600D01*
X123152Y27720D01*
X124264Y25036D01*
X126032Y22732D01*
X128336Y20964D01*
X131020Y19852D01*
X133900Y19473D01*
X136780Y19852D01*
X139464Y20964D01*
X141768Y22732D01*
X143536Y25036D01*
X144648Y27720D01*
X145027Y30600D01*
X144648Y33480D01*
X143536Y36164D01*
X141768Y38468D01*
X139464Y40236D01*
X136780Y41348D01*
X133900Y41727D01*
D02*
G37*
G36*
X221572Y29330D02*
X211370D01*
Y19128D01*
X213113Y19357D01*
X215920Y20520D01*
X218330Y22370D01*
X220180Y24780D01*
X221343Y27587D01*
X221572Y29330D01*
D02*
G37*
G36*
X208830D02*
X198628D01*
X198857Y27587D01*
X200020Y24780D01*
X201870Y22370D01*
X204280Y20520D01*
X207087Y19357D01*
X208830Y19128D01*
Y29330D01*
D02*
G37*
%LPD*%
G36*
X396912Y212317D02*
X396771Y212132D01*
X396647Y211932D01*
X396539Y211717D01*
X396447Y211487D01*
X396373Y211242D01*
X396315Y210982D01*
X396273Y210707D01*
X396248Y210417D01*
X396240Y210112D01*
X393700D01*
X393692Y210417D01*
X393667Y210707D01*
X393625Y210982D01*
X393567Y211242D01*
X393493Y211487D01*
X393401Y211717D01*
X393293Y211932D01*
X393169Y212132D01*
X393028Y212317D01*
X392870Y212488D01*
X397070D01*
X396912Y212317D01*
D02*
G37*
G36*
X386912D02*
X386771Y212132D01*
X386647Y211932D01*
X386539Y211717D01*
X386447Y211487D01*
X386373Y211242D01*
X386315Y210982D01*
X386273Y210707D01*
X386248Y210417D01*
X386240Y210112D01*
X383700D01*
X383692Y210417D01*
X383667Y210707D01*
X383625Y210982D01*
X383567Y211242D01*
X383493Y211487D01*
X383401Y211717D01*
X383293Y211932D01*
X383169Y212132D01*
X383028Y212317D01*
X382870Y212488D01*
X387070D01*
X386912Y212317D01*
D02*
G37*
G36*
X335563Y88657D02*
X335353Y88435D01*
X335165Y88212D01*
X335000Y87989D01*
X334858Y87764D01*
X334737Y87538D01*
X334639Y87310D01*
X334563Y87082D01*
X334510Y86853D01*
X334479Y86622D01*
X334470Y86390D01*
X331500Y89360D01*
X331732Y89369D01*
X331963Y89400D01*
X332192Y89453D01*
X332421Y89529D01*
X332648Y89627D01*
X332874Y89748D01*
X333099Y89890D01*
X333322Y90056D01*
X333545Y90243D01*
X333767Y90453D01*
X335563Y88657D01*
D02*
G37*
G36*
X322588Y71523D02*
X322613Y71233D01*
X322655Y70958D01*
X322713Y70698D01*
X322788Y70453D01*
X322879Y70223D01*
X322987Y70008D01*
X323111Y69808D01*
X323252Y69623D01*
X323410Y69452D01*
X319210D01*
X319368Y69623D01*
X319509Y69808D01*
X319633Y70008D01*
X319741Y70223D01*
X319832Y70453D01*
X319907Y70698D01*
X319965Y70958D01*
X320007Y71233D01*
X320032Y71523D01*
X320040Y71828D01*
X322580D01*
X322588Y71523D01*
D02*
G37*
G36*
X291344Y214857D02*
X291203Y214672D01*
X291079Y214472D01*
X290971Y214257D01*
X290879Y214027D01*
X290805Y213782D01*
X290747Y213522D01*
X290705Y213247D01*
X290680Y212957D01*
X290672Y212652D01*
X288132D01*
X288124Y212957D01*
X288099Y213247D01*
X288057Y213522D01*
X287999Y213782D01*
X287924Y214027D01*
X287833Y214257D01*
X287725Y214472D01*
X287601Y214672D01*
X287460Y214857D01*
X287302Y215028D01*
X291502D01*
X291344Y214857D01*
D02*
G37*
G36*
X263331Y181367D02*
X263121Y181145D01*
X262934Y180923D01*
X262768Y180699D01*
X262626Y180474D01*
X262505Y180248D01*
X262407Y180021D01*
X262331Y179792D01*
X262278Y179563D01*
X262247Y179332D01*
X262238Y179100D01*
X259268Y182070D01*
X259500Y182079D01*
X259730Y182110D01*
X259960Y182163D01*
X260189Y182239D01*
X260416Y182337D01*
X260642Y182458D01*
X260867Y182600D01*
X261091Y182766D01*
X261313Y182953D01*
X261535Y183163D01*
X263331Y181367D01*
D02*
G37*
G36*
X63898Y191699D02*
X63900Y191472D01*
X63928Y191246D01*
X63982Y191019D01*
X64063Y190794D01*
X64169Y190569D01*
X64301Y190344D01*
X64459Y190120D01*
X64644Y189896D01*
X64854Y189672D01*
X62756Y188178D01*
X62536Y188389D01*
X62095Y188753D01*
X61874Y188906D01*
X61653Y189042D01*
X61431Y189158D01*
X61209Y189255D01*
X60986Y189334D01*
X60764Y189394D01*
X60541Y189434D01*
X63922Y191926D01*
X63898Y191699D01*
D02*
G37*
G36*
X96989Y187063D02*
X97020Y186832D01*
X97073Y186603D01*
X97149Y186374D01*
X97247Y186147D01*
X97368Y185921D01*
X97510Y185696D01*
X97676Y185473D01*
X97863Y185250D01*
X98073Y185028D01*
X96277Y183232D01*
X96055Y183442D01*
X95833Y183629D01*
X95609Y183795D01*
X95384Y183937D01*
X95158Y184058D01*
X94930Y184156D01*
X94702Y184232D01*
X94473Y184285D01*
X94242Y184316D01*
X94010Y184325D01*
X96980Y187295D01*
X96989Y187063D01*
D02*
G37*
G36*
X227795Y170253D02*
X228018Y170065D01*
X228241Y169900D01*
X228466Y169758D01*
X228692Y169637D01*
X228920Y169539D01*
X229148Y169463D01*
X229377Y169410D01*
X229608Y169379D01*
X229840Y169370D01*
X226870Y166400D01*
X226861Y166632D01*
X226830Y166863D01*
X226777Y167092D01*
X226701Y167320D01*
X226603Y167548D01*
X226482Y167774D01*
X226340Y167999D01*
X226175Y168223D01*
X225987Y168445D01*
X225777Y168667D01*
X227573Y170463D01*
X227795Y170253D01*
D02*
G37*
G36*
Y157553D02*
X228018Y157366D01*
X228241Y157200D01*
X228466Y157058D01*
X228692Y156937D01*
X228920Y156839D01*
X229148Y156763D01*
X229377Y156710D01*
X229608Y156679D01*
X229840Y156670D01*
X226870Y153700D01*
X226861Y153932D01*
X226830Y154163D01*
X226777Y154392D01*
X226701Y154621D01*
X226603Y154848D01*
X226482Y155074D01*
X226340Y155299D01*
X226175Y155522D01*
X225987Y155745D01*
X225777Y155967D01*
X227573Y157763D01*
X227795Y157553D01*
D02*
G37*
G36*
X274320Y229235D02*
X269240Y234315D01*
X279400D01*
X274320Y229235D01*
D02*
G37*
G36*
X275598Y227733D02*
X275623Y227443D01*
X275665Y227168D01*
X275723Y226908D01*
X275798Y226663D01*
X275889Y226433D01*
X275997Y226218D01*
X276121Y226018D01*
X276262Y225833D01*
X276420Y225662D01*
X272220D01*
X272378Y225833D01*
X272519Y226018D01*
X272643Y226218D01*
X272751Y226433D01*
X272843Y226663D01*
X272917Y226908D01*
X272975Y227168D01*
X273017Y227443D01*
X273042Y227733D01*
X273050Y228038D01*
X275590D01*
X275598Y227733D01*
D02*
G37*
G36*
X21743Y85987D02*
X21533Y85765D01*
X21346Y85542D01*
X21181Y85319D01*
X21038Y85094D01*
X20917Y84868D01*
X20819Y84641D01*
X20743Y84412D01*
X20690Y84183D01*
X20659Y83952D01*
X20650Y83720D01*
X17680Y86690D01*
X17912Y86699D01*
X18143Y86730D01*
X18372Y86783D01*
X18600Y86859D01*
X18828Y86957D01*
X19054Y87078D01*
X19279Y87220D01*
X19503Y87386D01*
X19725Y87573D01*
X19947Y87783D01*
X21743Y85987D01*
D02*
G37*
G36*
X277258Y72830D02*
X277087Y72988D01*
X276902Y73129D01*
X276702Y73253D01*
X276487Y73361D01*
X276257Y73453D01*
X276012Y73527D01*
X275752Y73585D01*
X275477Y73627D01*
X275187Y73652D01*
X274882Y73660D01*
Y76200D01*
X275187Y76208D01*
X275477Y76233D01*
X275752Y76275D01*
X276012Y76333D01*
X276257Y76407D01*
X276487Y76499D01*
X276702Y76607D01*
X276902Y76731D01*
X277087Y76872D01*
X277258Y77030D01*
Y72830D01*
D02*
G37*
G36*
X18928Y68853D02*
X18953Y68563D01*
X18995Y68288D01*
X19053Y68028D01*
X19128Y67783D01*
X19219Y67553D01*
X19327Y67338D01*
X19451Y67138D01*
X19592Y66953D01*
X19750Y66782D01*
X15550D01*
X15708Y66953D01*
X15849Y67138D01*
X15973Y67338D01*
X16081Y67553D01*
X16172Y67783D01*
X16247Y68028D01*
X16305Y68288D01*
X16347Y68563D01*
X16372Y68853D01*
X16380Y69158D01*
X18920D01*
X18928Y68853D01*
D02*
G37*
G36*
X268368Y63940D02*
X268197Y64098D01*
X268012Y64239D01*
X267812Y64363D01*
X267597Y64471D01*
X267367Y64563D01*
X267122Y64637D01*
X266862Y64695D01*
X266587Y64737D01*
X266297Y64762D01*
X265992Y64770D01*
Y67310D01*
X266297Y67318D01*
X266587Y67343D01*
X266862Y67385D01*
X267122Y67443D01*
X267367Y67517D01*
X267597Y67609D01*
X267812Y67717D01*
X268012Y67841D01*
X268197Y67982D01*
X268368Y68140D01*
Y63940D01*
D02*
G37*
D11*
X198120Y173482D02*
G03*
X200660Y170942I2540J0D01*
G01*
X198120Y176692D02*
G03*
X193548Y176692I-2286J0D01*
G01*
X188976Y173228D02*
G03*
X193548Y173228I2286J0D01*
G01*
X188976Y176692D02*
G03*
X184404Y176692I-2286J0D01*
G01*
X179832Y173228D02*
G03*
X184404Y173228I2286J0D01*
G01*
X179832Y176692D02*
G03*
X175260Y176692I-2286J0D01*
G01*
X172720Y170942D02*
G03*
X175260Y173482I0J2540D01*
G01*
X110363Y170942D02*
X171450D01*
X200660D02*
X206988D01*
X198120Y173482D02*
Y176692D01*
X193548Y173228D02*
Y176692D01*
X188976Y173228D02*
Y176692D01*
X184404Y173228D02*
Y176692D01*
X179832Y173228D02*
Y176692D01*
X175260Y173482D02*
Y176692D01*
X171450Y170942D02*
X172720D01*
X206988D02*
X225298D01*
X229870Y166370D01*
X93980Y187325D02*
X110363Y170942D01*
X217170Y166370D02*
X229870Y153670D01*
X107950Y166370D02*
X217170D01*
X95250Y179070D02*
X107950Y166370D01*
X73660Y179070D02*
X95250D01*
X60960Y191770D02*
Y192405D01*
Y191770D02*
X73660Y179070D01*
X384970Y153830D02*
Y214630D01*
X321310Y90170D02*
X384970Y153830D01*
X321310Y67310D02*
Y90170D01*
X331470Y86360D02*
X394970Y149860D01*
Y214630D01*
X274320Y223520D02*
Y234315D01*
X274955Y234950D01*
X218440Y99060D02*
X251460Y66040D01*
X46990Y99060D02*
X218440D01*
X251460Y66040D02*
X270510D01*
X41910Y107950D02*
X223520D01*
X256540Y74930D02*
X279400D01*
X223520Y107950D02*
X256540Y74930D01*
X17650Y69720D02*
X46990Y99060D01*
X17650Y64640D02*
Y69720D01*
X289402Y209234D02*
Y217170D01*
X259238Y179070D02*
X289402Y209234D01*
X17650Y83690D02*
X41910Y107950D01*
D42*
X274955Y234950D02*
X316230D01*
X233680D02*
X274955D01*
X316230D02*
X328930Y222250D01*
X220980D02*
X233680Y234950D01*
X220980Y196850D02*
Y222250D01*
X328930Y138430D02*
Y222250D01*
X220980Y190500D02*
Y196850D01*
X328930Y132080D02*
Y138430D01*
D43*
X210100Y30600D02*
D03*
Y56000D02*
D03*
Y81400D02*
D03*
X133900Y56000D02*
D03*
Y81400D02*
D03*
Y30600D02*
D03*
D44*
X68860Y146800D02*
D03*
X68860Y233200D02*
D03*
D45*
X27360Y233200D02*
D03*
Y146800D02*
D03*
D46*
X181610Y185420D02*
D03*
X147320Y201930D02*
D03*
X102870Y187960D02*
D03*
X92710Y203200D02*
D03*
X93980Y187325D02*
D03*
X229870Y166370D02*
D03*
Y153670D02*
D03*
X60960Y192405D02*
D03*
X341630Y78740D02*
D03*
X321310Y40640D02*
D03*
X405130Y54610D02*
D03*
Y38100D02*
D03*
X405000Y61090D02*
D03*
X359410Y10160D02*
D03*
X52070Y180340D02*
D03*
X331470Y86360D02*
D03*
X359280Y16640D02*
D03*
X321310Y67310D02*
D03*
X17650Y45590D02*
D03*
X269240Y16510D02*
D03*
X262890D02*
D03*
X344170Y177800D02*
D03*
X274320Y223520D02*
D03*
X17650Y83690D02*
D03*
Y64640D02*
D03*
X401320Y134620D02*
D03*
Y128270D02*
D03*
Y140970D02*
D03*
X210820Y236220D02*
D03*
X203200D02*
D03*
X207010Y241300D02*
D03*
X148590Y135890D02*
D03*
X377320Y158880D02*
D03*
X220980Y196850D02*
D03*
Y190500D02*
D03*
X328930Y132080D02*
D03*
Y138430D02*
D03*
X394970Y214630D02*
D03*
X384970D02*
D03*
X289402Y217170D02*
D03*
X259238Y179070D02*
D03*
X279400Y74930D02*
D03*
X270510Y66040D02*
D03*
M02*
