G04*
G04 #@! TF.GenerationSoftware,Altium Limited,Altium Designer,22.6.1 (34)*
G04*
G04 Layer_Color=8388736*
%FSLAX44Y44*%
%MOMM*%
G71*
G04*
G04 #@! TF.SameCoordinates,64BB26C1-36A9-42FA-8A83-9A0FAFC5C5BC*
G04*
G04*
G04 #@! TF.FilePolarity,Negative*
G04*
G01*
G75*
%ADD26R,0.9516X0.9516*%
%ADD27R,2.0066X1.8161*%
%ADD28R,1.7516X1.5016*%
%ADD29R,1.7516X1.5016*%
%ADD30R,0.9516X0.9516*%
%ADD31O,2.1844X0.8016*%
%ADD32R,0.8016X2.3556*%
%ADD33R,0.6858X1.6002*%
%ADD34R,0.7620X1.6002*%
%ADD35R,1.8161X2.0066*%
%ADD36R,1.6376X0.7016*%
%ADD37R,1.6376X0.4016*%
%ADD38O,1.9016X1.9016*%
%ADD39C,0.1016*%
%ADD40O,2.2016X1.1016*%
%ADD41O,1.7016X1.1016*%
G36*
X167232Y222751D02*
X167327Y222722D01*
X167416Y222674D01*
X167493Y222611D01*
X167556Y222534D01*
X167604Y222445D01*
X167633Y222350D01*
X167642Y222250D01*
Y218398D01*
X173843Y212197D01*
X173843Y212197D01*
X173906Y212120D01*
X173954Y212031D01*
X173983Y211936D01*
X173993Y211836D01*
Y185166D01*
X173983Y185066D01*
X173954Y184971D01*
X173906Y184882D01*
X173843Y184805D01*
X173766Y184742D01*
X173677Y184694D01*
X173582Y184665D01*
X173482Y184655D01*
X154178D01*
X154078Y184665D01*
X153983Y184694D01*
X153894Y184742D01*
X153817Y184805D01*
X153754Y184882D01*
X153706Y184971D01*
X153677Y185066D01*
X153667Y185166D01*
Y211836D01*
X153677Y211936D01*
X153706Y212031D01*
X153754Y212120D01*
X153817Y212197D01*
X160018Y218397D01*
Y222250D01*
X160027Y222350D01*
X160056Y222445D01*
X160104Y222534D01*
X160167Y222611D01*
X160244Y222674D01*
X160333Y222722D01*
X160428Y222751D01*
X160528Y222761D01*
X167132D01*
X167232Y222751D01*
D02*
G37*
D26*
X348110Y16510D02*
D03*
X332610D02*
D03*
X282070Y234950D02*
D03*
X266570D02*
D03*
X377320Y167640D02*
D03*
X361820D02*
D03*
X17650Y74930D02*
D03*
X33150D02*
D03*
X67440D02*
D03*
X51940D02*
D03*
X67440Y55880D02*
D03*
X51940D02*
D03*
X17650D02*
D03*
X33150D02*
D03*
X17650Y36830D02*
D03*
X33150D02*
D03*
X67440D02*
D03*
X51940D02*
D03*
X106810Y74930D02*
D03*
X91310D02*
D03*
Y55880D02*
D03*
X106810D02*
D03*
X91310Y36830D02*
D03*
X106810D02*
D03*
X163960Y148590D02*
D03*
X148460D02*
D03*
Y123190D02*
D03*
X163960D02*
D03*
D27*
X342900Y134620D02*
D03*
X370840D02*
D03*
D28*
X365311Y44089D02*
D03*
X212911Y126639D02*
D03*
D29*
X340809Y44089D02*
D03*
Y62591D02*
D03*
X365311D02*
D03*
X188409Y126639D02*
D03*
Y145141D02*
D03*
X212911D02*
D03*
D30*
X392430Y45590D02*
D03*
Y61090D02*
D03*
X415290Y152270D02*
D03*
Y167770D02*
D03*
X55880Y110360D02*
D03*
Y125860D02*
D03*
X38100D02*
D03*
Y110360D02*
D03*
D31*
X244554Y92710D02*
D03*
Y29210D02*
D03*
Y16510D02*
D03*
X304086Y92710D02*
D03*
Y29210D02*
D03*
Y16510D02*
D03*
X244554Y80010D02*
D03*
Y67310D02*
D03*
Y54610D02*
D03*
Y41910D02*
D03*
X304086Y80010D02*
D03*
Y67310D02*
D03*
Y54610D02*
D03*
Y41910D02*
D03*
Y128270D02*
D03*
Y140970D02*
D03*
Y204470D02*
D03*
Y217170D02*
D03*
X244554Y128270D02*
D03*
Y140970D02*
D03*
Y204470D02*
D03*
Y217170D02*
D03*
X304086Y153670D02*
D03*
Y166370D02*
D03*
Y179070D02*
D03*
Y191770D02*
D03*
X244554Y153670D02*
D03*
Y166370D02*
D03*
Y179070D02*
D03*
Y191770D02*
D03*
D32*
X414730Y195580D02*
D03*
X404730D02*
D03*
X394730D02*
D03*
X384730D02*
D03*
X374730D02*
D03*
X364730D02*
D03*
X354730D02*
D03*
X344730D02*
D03*
D33*
X148830Y228727D02*
D03*
X178830D02*
D03*
D34*
X163830D02*
D03*
D35*
X207010Y194310D02*
D03*
Y222250D02*
D03*
X120650Y194310D02*
D03*
Y222250D02*
D03*
D36*
X77470Y222500D02*
D03*
Y214500D02*
D03*
Y165500D02*
D03*
Y157500D02*
D03*
D37*
Y207500D02*
D03*
Y202500D02*
D03*
Y197500D02*
D03*
Y192500D02*
D03*
Y187500D02*
D03*
Y182500D02*
D03*
Y177500D02*
D03*
Y172500D02*
D03*
D38*
X210100Y30600D02*
D03*
Y56000D02*
D03*
Y81400D02*
D03*
X133900Y56000D02*
D03*
Y81400D02*
D03*
Y30600D02*
D03*
D39*
X63860Y161100D02*
D03*
Y218900D02*
D03*
D40*
X68860Y146800D02*
D03*
X68860Y233200D02*
D03*
D41*
X27360Y233200D02*
D03*
Y146800D02*
D03*
M02*
