M48
;Layer_Color=9474304
;FILE_FORMAT=4:4
METRIC,LZ
;TYPE=PLATED
T1F00S00C0.3000
T3F00S00C1.0000
;TYPE=NON_PLATED
T4F00S00C0.7000
%
T01
X0026289Y0001651
X0026924
X0027051Y0006604
X002794Y0007493
X0032131Y0006731
Y0004064
X0035928Y0001664
X0035941Y0001016
X0040513Y000381
Y0005461
X00405Y0006109
X0001765Y0006464
Y0004559
Y0008369
X0005207Y0018034
X0006096Y00192405
X0009398Y00187325
X0010287Y0018796
X0009271Y002032
X0014732Y0020193
X0018161Y0018542
X0022098Y001905
Y0019685
X0022987Y0016637
Y0015367
X00259238Y0017907
X0027432Y0022352
X00289402Y0021717
X0034417Y001778
X0037732Y0015888
X0040132Y0014097
Y0013462
Y0012827
X0032893Y0013208
Y0013843
X0033147Y0008636
X0034163Y0007874
X0038497Y0021463
X0039497
X0021082Y0023622
X002032
X0020701Y002413
X0014859Y0013589
T03
X002101Y000306
Y00056
X001339
Y000306
Y000814
X002101
T04
X0006386Y001611
Y002189
M30
