G04*
G04 #@! TF.GenerationSoftware,Altium Limited,Altium Designer,22.6.1 (34)*
G04*
G04 Layer_Color=128*
%FSLAX44Y44*%
%MOMM*%
G71*
G04*
G04 #@! TF.SameCoordinates,64BB26C1-36A9-42FA-8A83-9A0FAFC5C5BC*
G04*
G04*
G04 #@! TF.FilePolarity,Positive*
G04*
G01*
G75*
%ADD48C,0.0508*%
D48*
X205100Y30600D02*
X215100D01*
X210100Y25600D02*
Y35600D01*
X205100Y56000D02*
X215100D01*
X210100Y51000D02*
Y61000D01*
X205100Y81400D02*
X215100D01*
X210100Y76400D02*
Y86400D01*
X128900Y56000D02*
X138900D01*
X133900Y51000D02*
Y61000D01*
X128900Y81400D02*
X138900D01*
X133900Y76400D02*
Y86400D01*
X128900Y30600D02*
X138900D01*
X133900Y25600D02*
Y35600D01*
X60360Y161100D02*
X67360D01*
X63860Y157600D02*
Y164600D01*
X60360Y218900D02*
X67360D01*
X63860Y215400D02*
Y222400D01*
X65860Y146800D02*
X71860D01*
X68860Y143800D02*
Y149800D01*
X65860Y233200D02*
X71860D01*
X68860Y230200D02*
Y236200D01*
X24360Y233200D02*
X30360D01*
X27360Y230200D02*
Y236200D01*
X24360Y146800D02*
X30360D01*
X27360Y143800D02*
Y149800D01*
X180110Y185420D02*
X183110D01*
X181610Y183920D02*
Y186920D01*
X145820Y201930D02*
X148820D01*
X147320Y200430D02*
Y203430D01*
X101370Y187960D02*
X104370D01*
X102870Y186460D02*
Y189460D01*
X91210Y203200D02*
X94210D01*
X92710Y201700D02*
Y204700D01*
X92480Y187325D02*
X95480D01*
X93980Y185825D02*
Y188825D01*
X228370Y166370D02*
X231370D01*
X229870Y164870D02*
Y167870D01*
X228370Y153670D02*
X231370D01*
X229870Y152170D02*
Y155170D01*
X59460Y192405D02*
X62460D01*
X60960Y190905D02*
Y193905D01*
X340130Y78740D02*
X343130D01*
X341630Y77240D02*
Y80240D01*
X319810Y40640D02*
X322810D01*
X321310Y39140D02*
Y42140D01*
X403630Y54610D02*
X406630D01*
X405130Y53110D02*
Y56110D01*
X403630Y38100D02*
X406630D01*
X405130Y36600D02*
Y39600D01*
X403500Y61090D02*
X406500D01*
X405000Y59590D02*
Y62590D01*
X357910Y10160D02*
X360910D01*
X359410Y8660D02*
Y11660D01*
X50570Y180340D02*
X53570D01*
X52070Y178840D02*
Y181840D01*
X329970Y86360D02*
X332970D01*
X331470Y84860D02*
Y87860D01*
X357780Y16640D02*
X360780D01*
X359280Y15140D02*
Y18140D01*
X319810Y67310D02*
X322810D01*
X321310Y65810D02*
Y68810D01*
X16150Y45590D02*
X19150D01*
X17650Y44090D02*
Y47090D01*
X267740Y16510D02*
X270740D01*
X269240Y15010D02*
Y18010D01*
X261390Y16510D02*
X264390D01*
X262890Y15010D02*
Y18010D01*
X342670Y177800D02*
X345670D01*
X344170Y176300D02*
Y179300D01*
X272820Y223520D02*
X275820D01*
X274320Y222020D02*
Y225020D01*
X16150Y83690D02*
X19150D01*
X17650Y82190D02*
Y85190D01*
X16150Y64640D02*
X19150D01*
X17650Y63140D02*
Y66140D01*
X399820Y134620D02*
X402820D01*
X401320Y133120D02*
Y136120D01*
X399820Y128270D02*
X402820D01*
X401320Y126770D02*
Y129770D01*
X399820Y140970D02*
X402820D01*
X401320Y139470D02*
Y142470D01*
X209320Y236220D02*
X212320D01*
X210820Y234720D02*
Y237720D01*
X201700Y236220D02*
X204700D01*
X203200Y234720D02*
Y237720D01*
X205510Y241300D02*
X208510D01*
X207010Y239800D02*
Y242800D01*
X147090Y135890D02*
X150090D01*
X148590Y134390D02*
Y137390D01*
X375820Y158880D02*
X378820D01*
X377320Y157380D02*
Y160380D01*
X219480Y196850D02*
X222480D01*
X220980Y195350D02*
Y198350D01*
X219480Y190500D02*
X222480D01*
X220980Y189000D02*
Y192000D01*
X327430Y132080D02*
X330430D01*
X328930Y130580D02*
Y133580D01*
X327430Y138430D02*
X330430D01*
X328930Y136930D02*
Y139930D01*
X393470Y214630D02*
X396470D01*
X394970Y213130D02*
Y216130D01*
X383470Y214630D02*
X386470D01*
X384970Y213130D02*
Y216130D01*
X287902Y217170D02*
X290902D01*
X289402Y215670D02*
Y218670D01*
X257738Y179070D02*
X260738D01*
X259238Y177570D02*
Y180570D01*
X277900Y74930D02*
X280900D01*
X279400Y73430D02*
Y76430D01*
X269010Y66040D02*
X272010D01*
X270510Y64540D02*
Y67540D01*
M02*
