G04*
G04 #@! TF.GenerationSoftware,Altium Limited,Altium Designer,22.6.1 (34)*
G04*
G04 Layer_Color=3326705*
%FSLAX44Y44*%
%MOMM*%
G71*
G04*
G04 #@! TF.SameCoordinates,64BB26C1-36A9-42FA-8A83-9A0FAFC5C5BC*
G04*
G04*
G04 #@! TF.FilePolarity,Positive*
G04*
G01*
G75*
%ADD11C,0.2540*%
%ADD12C,0.2032*%
%ADD47C,0.3048*%
G36*
X388238Y174230D02*
X392663D01*
Y170247D01*
X388238D01*
Y174230D01*
X384255D01*
Y166264D01*
X388238D01*
Y164494D01*
Y164051D01*
Y162281D01*
X392663D01*
Y158298D01*
X388238D01*
Y162281D01*
X384255D01*
Y166264D01*
X380272D01*
Y170247D01*
X372307D01*
Y174230D01*
X368324D01*
Y170247D01*
X356376D01*
Y174230D01*
X352393D01*
Y172459D01*
Y172017D01*
Y170247D01*
X356376D01*
Y166264D01*
X376290D01*
Y164494D01*
Y164051D01*
Y162281D01*
X384255D01*
Y158298D01*
X380272D01*
Y154316D01*
X388238D01*
Y150333D01*
X384255D01*
Y146350D01*
X388238D01*
Y144137D01*
Y143695D01*
Y142367D01*
X392663D01*
Y137942D01*
X388238D01*
Y139712D01*
Y140154D01*
Y142367D01*
X384255D01*
Y146350D01*
X380272D01*
Y148563D01*
Y149005D01*
Y154316D01*
X376290D01*
Y161396D01*
Y161839D01*
Y162281D01*
X368324D01*
Y158298D01*
X364341D01*
Y162281D01*
X352393D01*
Y170247D01*
X343985D01*
Y174230D01*
X348410D01*
Y178212D01*
X360358D01*
Y174230D01*
X364341D01*
Y178212D01*
X376290D01*
Y174230D01*
X380272D01*
Y178212D01*
X388238D01*
Y174230D01*
D02*
G37*
G36*
X312122D02*
X316105D01*
Y170247D01*
X308140D01*
Y178212D01*
X312122D01*
Y174230D01*
D02*
G37*
G36*
X340002Y166264D02*
X336019D01*
Y170247D01*
X324071D01*
Y166264D01*
X320088D01*
Y174230D01*
X316105D01*
Y178212D01*
X340002D01*
Y166264D01*
D02*
G37*
G36*
X348410Y162281D02*
X352393D01*
Y154316D01*
X356376D01*
Y158298D01*
X360358D01*
Y154316D01*
X376290D01*
Y142367D01*
X380272D01*
Y137942D01*
X372307D01*
Y142367D01*
X368324D01*
Y150333D01*
X364341D01*
Y142367D01*
X360358D01*
Y137942D01*
X372307D01*
Y133959D01*
X380272D01*
Y127764D01*
Y127321D01*
Y125993D01*
X376290D01*
Y129976D01*
X372307D01*
Y133959D01*
X364341D01*
Y125993D01*
X360358D01*
Y122011D01*
X368324D01*
Y118028D01*
X372307D01*
Y102097D01*
X376290D01*
Y98114D01*
X372307D01*
Y102097D01*
X368324D01*
Y110062D01*
X364341D01*
Y114045D01*
X360358D01*
Y118028D01*
X352393D01*
Y122011D01*
X356376D01*
Y125993D01*
X348410D01*
Y122011D01*
X343985D01*
Y137942D01*
X340002D01*
Y125993D01*
X336019D01*
Y137942D01*
X332036D01*
Y142367D01*
X320088D01*
Y146350D01*
X324071D01*
Y154316D01*
X316105D01*
Y158298D01*
X312122D01*
Y154316D01*
X308140D01*
Y162281D01*
X316105D01*
Y166264D01*
X320088D01*
Y162281D01*
X328054D01*
Y166264D01*
X336019D01*
Y162281D01*
X343985D01*
Y166264D01*
X348410D01*
Y162281D01*
D02*
G37*
G36*
X424526Y150333D02*
X396646D01*
Y178212D01*
X424526D01*
Y150333D01*
D02*
G37*
G36*
X420543Y142367D02*
X424526D01*
Y129976D01*
X416560D01*
Y133959D01*
X408594D01*
Y137942D01*
X400629D01*
Y138384D01*
Y138827D01*
Y142367D01*
X396646D01*
Y142810D01*
Y146350D01*
X400629D01*
Y142367D01*
X408594D01*
Y137942D01*
X416560D01*
Y142367D01*
X412577D01*
Y146350D01*
X420543D01*
Y142367D01*
D02*
G37*
G36*
X400629Y133959D02*
X396646D01*
Y137942D01*
X400629D01*
Y133959D01*
D02*
G37*
G36*
X332036Y136172D02*
Y135729D01*
Y125993D01*
X328054D01*
Y137942D01*
X332036D01*
Y136172D01*
D02*
G37*
G36*
X312122Y125993D02*
X308140D01*
Y129976D01*
X312122D01*
Y125993D01*
D02*
G37*
G36*
X372307D02*
X376290D01*
Y122011D01*
X368324D01*
Y129976D01*
X372307D01*
Y125993D01*
D02*
G37*
G36*
X316105Y142367D02*
X320088D01*
Y137942D01*
X324071D01*
Y125993D01*
X328054D01*
Y122011D01*
X336019D01*
Y118028D01*
X340002D01*
Y114045D01*
X348410D01*
Y106080D01*
X352393D01*
Y102097D01*
X356376D01*
Y101212D01*
Y100769D01*
Y98114D01*
X352393D01*
Y102097D01*
X343985D01*
Y98114D01*
X340002D01*
Y102097D01*
X328054D01*
Y93689D01*
X324071D01*
Y102097D01*
X316105D01*
Y110062D01*
X312122D01*
Y114045D01*
X308140D01*
Y122011D01*
X312122D01*
Y119355D01*
Y118913D01*
Y118028D01*
X316105D01*
Y110062D01*
X320088D01*
Y106080D01*
X328054D01*
Y110062D01*
X324071D01*
Y114045D01*
X320088D01*
Y118028D01*
X316105D01*
Y122011D01*
X320088D01*
Y125993D01*
X316105D01*
Y129976D01*
X312122D01*
Y137942D01*
X308140D01*
Y150333D01*
X316105D01*
Y142367D01*
D02*
G37*
G36*
X380272Y106965D02*
Y106522D01*
Y102097D01*
X376290D01*
Y110062D01*
X380272D01*
Y106965D01*
D02*
G37*
G36*
X388238Y133959D02*
X396646D01*
Y129976D01*
X404612D01*
Y125993D01*
X408594D01*
Y129976D01*
X404612D01*
Y131746D01*
Y132189D01*
Y133959D01*
X408594D01*
Y129976D01*
X416560D01*
Y125993D01*
X420543D01*
Y122011D01*
X424526D01*
Y118028D01*
X420543D01*
Y110062D01*
X424526D01*
Y102097D01*
X420543D01*
Y93689D01*
X416560D01*
Y106080D01*
X420543D01*
Y110062D01*
X412577D01*
Y106080D01*
X408594D01*
Y110062D01*
X404612D01*
Y106080D01*
X400629D01*
Y110062D01*
X396646D01*
Y114045D01*
X392663D01*
Y118028D01*
X388238D01*
Y122011D01*
X384255D01*
Y137942D01*
X388238D01*
Y133959D01*
D02*
G37*
G36*
X384255Y110062D02*
X388238D01*
Y114045D01*
X392663D01*
Y110062D01*
X396646D01*
Y106080D01*
X400629D01*
Y105637D01*
Y105195D01*
Y102097D01*
X404612D01*
Y98114D01*
X408594D01*
Y93689D01*
X404612D01*
Y98114D01*
X400629D01*
Y102097D01*
X396646D01*
Y106080D01*
X388238D01*
Y104309D01*
Y103867D01*
Y102097D01*
X396646D01*
Y98114D01*
X400629D01*
Y96344D01*
Y95901D01*
Y93689D01*
X396646D01*
Y98114D01*
X388238D01*
Y99884D01*
Y100327D01*
Y102097D01*
X384255D01*
Y110062D01*
X380272D01*
Y114045D01*
Y114488D01*
Y118028D01*
X384255D01*
Y110062D01*
D02*
G37*
G36*
X388238Y93689D02*
X384255D01*
Y98114D01*
X388238D01*
Y93689D01*
D02*
G37*
G36*
X340002D02*
X336019D01*
Y98114D01*
X340002D01*
Y93689D01*
D02*
G37*
G36*
X320088D02*
X316105D01*
Y98114D01*
X320088D01*
Y93689D01*
D02*
G37*
G36*
X312122Y95016D02*
Y94574D01*
Y93689D01*
X308140D01*
Y98114D01*
X312122D01*
Y95016D01*
D02*
G37*
G36*
X392663Y85723D02*
X388238D01*
Y89706D01*
X392663D01*
Y85723D01*
D02*
G37*
G36*
X380272Y89706D02*
X384255D01*
Y81740D01*
X376290D01*
Y85723D01*
X372307D01*
Y89706D01*
X376290D01*
Y85723D01*
X380272D01*
Y89706D01*
X376290D01*
Y93689D01*
X380272D01*
Y89706D01*
D02*
G37*
G36*
X352393Y87051D02*
Y86608D01*
Y85723D01*
X348410D01*
Y89706D01*
X352393D01*
Y87051D01*
D02*
G37*
G36*
Y114045D02*
X356376D01*
Y113603D01*
Y113160D01*
Y106080D01*
X364341D01*
Y102097D01*
X368324D01*
Y93689D01*
X364341D01*
Y89706D01*
X368324D01*
Y87493D01*
Y87051D01*
Y85723D01*
X372307D01*
Y84396D01*
Y83953D01*
Y81740D01*
X368324D01*
Y85723D01*
X364341D01*
Y89706D01*
X360358D01*
Y77758D01*
X364341D01*
Y81740D01*
X368324D01*
Y73775D01*
X364341D01*
Y69792D01*
X368324D01*
Y65809D01*
X376290D01*
Y61826D01*
X364341D01*
Y69792D01*
X360358D01*
Y65809D01*
X356376D01*
Y73332D01*
Y73775D01*
Y77758D01*
X352393D01*
Y73775D01*
X348410D01*
Y81740D01*
X356376D01*
Y89706D01*
X352393D01*
Y93689D01*
X360358D01*
Y98114D01*
X364341D01*
Y102097D01*
X356376D01*
Y102982D01*
Y103424D01*
Y106080D01*
X352393D01*
Y114045D01*
X348410D01*
Y118028D01*
X352393D01*
Y114045D01*
D02*
G37*
G36*
X343985Y85281D02*
Y84838D01*
Y81740D01*
X340002D01*
Y89706D01*
X343985D01*
Y85281D01*
D02*
G37*
G36*
X392663Y77758D02*
X388238D01*
Y78643D01*
Y79085D01*
Y81740D01*
X392663D01*
Y77758D01*
D02*
G37*
G36*
Y69792D02*
X388238D01*
Y73775D01*
X392663D01*
Y69792D01*
D02*
G37*
G36*
X424526Y61826D02*
X396646D01*
Y89706D01*
X424526D01*
Y61826D01*
D02*
G37*
G36*
X376290Y71562D02*
Y71119D01*
Y69792D01*
X388238D01*
Y69349D01*
Y65809D01*
X392663D01*
Y61826D01*
X384255D01*
Y65809D01*
X376290D01*
Y69792D01*
X372307D01*
Y73775D01*
X376290D01*
Y71562D01*
D02*
G37*
G36*
X348410Y65809D02*
X352393D01*
Y61826D01*
X348410D01*
Y65809D01*
X343985D01*
Y66694D01*
Y67137D01*
Y69792D01*
X340002D01*
Y73775D01*
X348410D01*
Y65809D01*
D02*
G37*
G36*
X343985Y61826D02*
X340002D01*
Y65809D01*
X343985D01*
Y61826D01*
D02*
G37*
G36*
X336019D02*
X308140D01*
Y89706D01*
X336019D01*
Y61826D01*
D02*
G37*
%LPC*%
G36*
X352393Y154316D02*
X348410D01*
Y150333D01*
X352393D01*
Y154316D01*
D02*
G37*
G36*
X360358Y150333D02*
X356376D01*
Y146350D01*
X360358D01*
Y150333D01*
D02*
G37*
G36*
X340002Y158298D02*
X328054D01*
Y146350D01*
X340002D01*
Y158298D01*
D02*
G37*
G36*
X356376Y146350D02*
X348410D01*
Y133959D01*
X352393D01*
Y129976D01*
X356376D01*
Y146350D01*
D02*
G37*
G36*
X368324Y118028D02*
X364341D01*
Y114045D01*
X368324D01*
Y118028D01*
D02*
G37*
%LPD*%
G36*
X336019Y150775D02*
Y150333D01*
X332036D01*
Y154316D01*
X336019D01*
Y150775D01*
D02*
G37*
%LPC*%
G36*
X420543Y174230D02*
X400629D01*
Y154316D01*
X420543D01*
Y174230D01*
D02*
G37*
%LPD*%
G36*
X416560Y169804D02*
Y169362D01*
Y158298D01*
X404612D01*
Y170247D01*
X416560D01*
Y169804D01*
D02*
G37*
%LPC*%
G36*
X328054Y118028D02*
X324071D01*
Y114045D01*
X328054D01*
Y118028D01*
D02*
G37*
G36*
X343985Y110062D02*
X340002D01*
Y106080D01*
X343985D01*
Y110062D01*
D02*
G37*
G36*
X336019Y118028D02*
X332036D01*
Y106080D01*
X336019D01*
Y118028D01*
D02*
G37*
G36*
X416560D02*
X412577D01*
Y114045D01*
X416560D01*
Y118028D01*
D02*
G37*
G36*
X396646Y129976D02*
X392663D01*
Y125993D01*
X396646D01*
Y122011D01*
X400629D01*
Y118028D01*
X404612D01*
Y114045D01*
X408594D01*
Y118028D01*
X404612D01*
Y122011D01*
X400629D01*
Y125993D01*
X396646D01*
Y129976D01*
D02*
G37*
G36*
X400629Y118028D02*
X396646D01*
Y114045D01*
X400629D01*
Y118028D01*
D02*
G37*
G36*
X420543Y85723D02*
X400629D01*
Y65809D01*
X420543D01*
Y85723D01*
D02*
G37*
%LPD*%
G36*
X416560Y75545D02*
Y75102D01*
Y69792D01*
X404612D01*
Y81740D01*
X416560D01*
Y75545D01*
D02*
G37*
%LPC*%
G36*
X332036Y85723D02*
X312122D01*
Y65809D01*
X332036D01*
Y85723D01*
D02*
G37*
%LPD*%
G36*
X328054Y69792D02*
X316105D01*
Y81740D01*
X328054D01*
Y69792D01*
D02*
G37*
D11*
X83820Y181607D02*
Y174836D01*
X80434Y171450D01*
X77049Y174836D01*
Y181607D01*
X66892Y171450D02*
X73663D01*
X66892Y178221D01*
Y179914D01*
X68585Y181607D01*
X71971D01*
X73663Y179914D01*
X63507Y171450D02*
Y173143D01*
X61814D01*
Y171450D01*
X63507D01*
X55043Y179914D02*
X53350Y181607D01*
X49964D01*
X48271Y179914D01*
Y173143D01*
X49964Y171450D01*
X53350D01*
X55043Y173143D01*
Y179914D01*
X44886D02*
X43193Y181607D01*
X39808D01*
X38115Y179914D01*
Y173143D01*
X39808Y171450D01*
X43193D01*
X44886Y173143D01*
Y179914D01*
D12*
X288801Y170944D02*
X287277Y172467D01*
Y175515D01*
X288801Y177038D01*
X294895D01*
X296418Y175515D01*
Y172467D01*
X294895Y170944D01*
X291847D01*
Y173991D01*
X287277Y161803D02*
Y167897D01*
X296418D01*
Y161803D01*
X291847Y167897D02*
Y164850D01*
X287277Y158756D02*
Y152662D01*
Y155709D01*
X296418D01*
Y140474D02*
X287277D01*
X290324Y137427D01*
X287277Y134380D01*
X296418D01*
X287277Y126762D02*
Y129809D01*
X288801Y131333D01*
X294895D01*
X296418Y129809D01*
Y126762D01*
X294895Y125239D01*
X288801D01*
X287277Y126762D01*
X296418Y122192D02*
X287277D01*
Y117621D01*
X288801Y116098D01*
X291847D01*
X293371Y117621D01*
Y122192D01*
Y119145D02*
X296418Y116098D01*
X287277Y106957D02*
Y113051D01*
X296418D01*
Y106957D01*
X291847Y113051D02*
Y110004D01*
X287277Y94768D02*
Y91721D01*
Y93245D01*
X296418D01*
Y94768D01*
Y91721D01*
Y87151D02*
X287277D01*
X296418Y81057D01*
X287277D01*
Y71916D02*
Y78010D01*
X291847D01*
Y74963D01*
Y78010D01*
X296418D01*
X287277Y64298D02*
Y67345D01*
X288801Y68869D01*
X294895D01*
X296418Y67345D01*
Y64298D01*
X294895Y62775D01*
X288801D01*
X287277Y64298D01*
X157991Y86868D02*
X168148D01*
Y81790D01*
X166455Y80097D01*
X164762D01*
X163070Y81790D01*
Y86868D01*
Y81790D01*
X161377Y80097D01*
X159684D01*
X157991Y81790D01*
Y86868D01*
X168148Y76711D02*
X161377D01*
X157991Y73326D01*
X161377Y69940D01*
X168148D01*
X163070D01*
Y76711D01*
X157991Y66555D02*
X168148D01*
Y61476D01*
X166455Y59783D01*
X159684D01*
X157991Y61476D01*
Y66555D01*
Y56398D02*
X166455D01*
X168148Y54705D01*
Y51319D01*
X166455Y49627D01*
X157991D01*
X175771Y81790D02*
Y85175D01*
X177464Y86868D01*
X184235D01*
X185928Y85175D01*
Y81790D01*
X184235Y80097D01*
X177464D01*
X175771Y81790D01*
Y69940D02*
Y76711D01*
X180850D01*
Y73326D01*
Y76711D01*
X185928D01*
X175771Y59783D02*
Y66555D01*
X180850D01*
Y63169D01*
Y66555D01*
X185928D01*
X182542Y56398D02*
Y49627D01*
X179157Y56398D02*
Y49627D01*
X185928Y42856D02*
X182542Y46241D01*
X179157D01*
X175771Y42856D01*
X185928Y37777D02*
Y34392D01*
Y36084D01*
X175771D01*
X177464Y37777D01*
X185928Y29313D02*
X182542Y25928D01*
X179157D01*
X175771Y29313D01*
X34798Y50292D02*
Y60449D01*
X29720D01*
X28027Y58756D01*
Y55370D01*
X29720Y53678D01*
X34798D01*
X31412D02*
X28027Y50292D01*
X24641Y60449D02*
X17870Y50292D01*
Y60449D02*
X24641Y50292D01*
X65278Y31242D02*
Y41399D01*
X60200D01*
X58507Y39706D01*
Y36320D01*
X60200Y34628D01*
X65278D01*
X50043Y41399D02*
X53429D01*
X55121Y39706D01*
Y32935D01*
X53429Y31242D01*
X50043D01*
X48350Y32935D01*
Y39706D01*
X50043Y41399D01*
X44965D02*
Y31242D01*
X41579Y34628D01*
X38193Y31242D01*
Y41399D01*
X28037D02*
X34808D01*
Y31242D01*
X28037D01*
X34808Y36320D02*
X31422D01*
X24651Y31242D02*
Y41399D01*
X19573D01*
X17880Y39706D01*
Y36320D01*
X19573Y34628D01*
X24651D01*
X21265D02*
X17880Y31242D01*
X34798Y79499D02*
X28027D01*
X31412D01*
Y69342D01*
X24641Y79499D02*
X17870Y69342D01*
Y79499D02*
X24641Y69342D01*
D47*
X368300Y25400D02*
Y31750D01*
Y36830D02*
Y43180D01*
X396240Y36830D02*
Y43180D01*
Y25400D02*
Y31750D01*
X406400Y36830D02*
Y43180D01*
X422910Y26670D02*
Y31750D01*
X415290Y44450D02*
X421640D01*
X415290Y34290D02*
X420370D01*
X414020Y24130D02*
X420370D01*
X412750Y36830D02*
Y41910D01*
X398780Y34290D02*
X403860D01*
X384810Y24130D02*
X389890D01*
X382270Y36830D02*
Y41910D01*
Y26670D02*
Y31750D01*
X384810Y44450D02*
X389890D01*
X384810Y34290D02*
X389890D01*
X408940Y198120D02*
Y227330D01*
X398780Y217170D02*
X408940Y227330D01*
X419100Y217170D01*
X353060Y198755D02*
X363220Y208915D01*
X342900D02*
X353060Y198755D01*
Y227965D01*
X195072Y208783D02*
Y196087D01*
X192533Y193548D01*
X187454D01*
X184915Y196087D01*
Y208783D01*
X169680Y206244D02*
X172219Y208783D01*
X177298D01*
X179837Y206244D01*
Y203705D01*
X177298Y201166D01*
X172219D01*
X169680Y198626D01*
Y196087D01*
X172219Y193548D01*
X177298D01*
X179837Y196087D01*
X164602Y208783D02*
Y193548D01*
X156984D01*
X154445Y196087D01*
Y198626D01*
X156984Y201166D01*
X164602D01*
X156984D01*
X154445Y203705D01*
Y206244D01*
X156984Y208783D01*
X164602D01*
X131593Y206244D02*
Y203705D01*
X134132D01*
X129053D01*
X131593D01*
Y196087D01*
X129053Y193548D01*
X118897D02*
X113818D01*
X111279Y196087D01*
Y201166D01*
X113818Y203705D01*
X118897D01*
X121436Y201166D01*
Y196087D01*
X118897Y193548D01*
X90966Y208783D02*
X85887D01*
X88427D01*
Y193548D01*
X90966D01*
X85887D01*
X78270Y203705D02*
Y193548D01*
Y198626D01*
X75731Y201166D01*
X73191Y203705D01*
X70652D01*
X63035Y208783D02*
Y193548D01*
X55417D01*
X52878Y196087D01*
Y206244D01*
X55417Y208783D01*
X63035D01*
X47800Y193548D02*
Y203705D01*
X42721Y208783D01*
X37643Y203705D01*
Y193548D01*
Y201166D01*
X47800D01*
M02*
